/* XPM */
static char *btn-off[] = {
/* width height ncolors chars_per_pixel */
"127 46 203 2",
/* colors */
"   c #F5F6F7",
" . c #F3F4F5",
" X c #F1F2F3",
" o c #F0F2F2",
" O c #EDEEEF",
" + c #B1B8BE",
" @ c #AFB6BC",
" # c #97A1AB",
" $ c #959FA9",
" % c #7F8C9A",
" & c #C6CBCF",
" * c #C4C9CD",
" = c #C3C9CC",
" - c #C2C7CB",
" ; c #ABB4BB",
" : c #A8B2B8",
" > c #BEC3C7",
" , c #A7B0B7",
" < c #E1E4E6",
" 1 c #A5AEB5",
" 2 c #8F9BA6",
" 3 c #DFE2E4",
" 4 c #DDE0E2",
" 5 c #DBDEE0",
" 6 c #D9DCDE",
" 7 c #FEFFFF",
" 8 c #FCFDFD",
" 9 c #FBFBFC",
" 0 c #FAFBFB",
" q c #F9F9FA",
" w c #F8F9F9",
" e c #F7F7F8",
" r c #F6F7F7",
" t c #B6BDC2",
" y c #B5BDC1",
" u c #B4BBC0",
" i c #9FA8B2",
" p c #9CA6AF",
" a c #84919E",
" s c #818D9B",
" d c #CFD4D7",
" f c #CDD2D5",
" g c #CCD0D4",
" h c #CBD0D3",
" j c #C9CED1",
" k c #C7CCCF",
" l c #E7E9EB",
" z c #E6E9EA",
" x c #AAB3B9",
" c c #E5E7E9",
" v c #E4E7E8",
" b c #A9B1B8",
" n c #919CA7",
" m c #E1E3E5",
" M c #E0E3E4",
" N c #FEFEFE",
" B c #FCFCFC",
" V c #FAFAFA",
" C c #BBC2C6",
" Z c #A0A9B2",
" A c #9EA7B0",
" S c #8894A1",
" D c #86929F",
" F c #D3D7DA",
" G c #D2D7D9",
" H c #D1D5D8",
" J c #D0D5D7",
" K c #CFD3D6",
" L c #CDD1D4",
" P c #EEF0F1",
" I c #ECEEEF",
" U c #B0B8BE",
" Y c #EBECEE",
" T c #EAECED",
" R c #E8EAEB",
" E c #ADB4BB",
" W c #ACB4BA",
" Q c #96A1AB",
" ! c #E6E8E9",
" ~ c #949FA9",
" ^ c #919BA6",
" / c #C1C7CB",
" ( c #BFC5C9",
" ) c #BDC3C7",
" _ c #A5AEB6",
" ` c #8C97A4",
" ' c #DADEE0",
" ] c #8A95A2",
" [ c #8995A1",
" { c #D9DCDF",
" } c #D8DCDE",
" | c #D5D8DB",
".  c #D4D8DA",
".. c #F6F7F8",
".X c #F4F5F6",
".o c #B7BFC4",
".O c #F2F3F4",
".+ c #F1F3F3",
".@ c #F0F1F2",
".# c #B4BBC1",
".$ c #B1B9BE",
".% c #99A2AD",
".& c #98A2AC",
".* c #828F9D",
".= c #818F9C",
".- c #808D9B",
".; c #C7CCD0",
".: c #C5CACE",
".> c #C4CACD",
"., c #C3C8CC",
".< c #C2C8CB",
".1 c #C1C6CA",
".2 c #C0C6C9",
".3 c #BFC4C8",
".4 c #A9B1B9",
".5 c #A8B1B8",
".6 c #BDC2C6",
".7 c #E2E5E7",
".8 c #A7AFB7",
".9 c #E0E3E5",
".0 c #8F9AA6",
".q c #8E9AA5",
".w c #DEE1E3",
".e c #8D98A4",
".r c #DCDFE1",
".t c #DADDDF",
".y c #FDFEFE",
".u c #FCFCFD",
".i c #FBFCFC",
".p c #F9FAFA",
".a c #F8F8F9",
".s c #F7F8F8",
".d c #F5F6F6",
".f c #B9C0C5",
".g c #F3F4F4",
".h c #B7BEC3",
".j c #B6BCC2",
".k c #B5BCC1",
".l c #9EA7B1",
".z c #99A3AC",
".x c #84909E",
".c c #828E9C",
".v c #818E9B",
".b c #808C9A",
".n c #CCD1D4",
".m c #CACFD2",
".M c #C8CDD0",
".N c #C6CBCE",
".B c #ADB6BC",
".V c #E8EAEC",
".C c #E6E8EA",
".Z c #E5E8E9",
".A c #AAB2B9",
".S c #E4E6E8",
".D c #909BA6",
".F c #8E99A4",
".G c #FFFFFF",
".H c #FDFDFD",
".J c #FBFBFB",
".K c #BCC3C7",
".L c #BBC1C6",
".P c #BAC1C5",
".I c #B9BFC4",
".U c #B8BFC3",
".Y c #8995A2",
".T c #8793A0",
".R c #86939F",
".E c #86919F",
".W c #85919E",
".Q c #D4D8DB",
".! c #838F9C",
".~ c #D2D6D9",
".^ c #D1D6D8",
"./ c #D0D4D7",
".( c #CED2D5",
".) c #EFF1F2",
"._ c #EEEFF1",
".` c #EDEFF0",
".' c #B2B9C0",
".] c #ECEDEF",
".[ c #EBEDEE",
".{ c #AFB7BD",
".} c #E9EBEC",
".| c #ADB5BB",
"X  c #E7E9EA",
"X. c #7F8D9B",
"XX c #C0C6CA",
"Xo c #BEC4C8",
"XO c #BCC2C6",
"X+ c #BAC0C4",
"X@ c #A4ADB5",
"X# c #A2ABB3",
"X$ c #DCDFE2",
"X% c #8B96A3",
"X& c #8A96A2",
"X* c #D9DDDF",
"X= c #8894A0",
"X- c #D8DBDE",
"X; c #D7DBDD",
"X: c #D6D9DC",
"X> c #D5D9DB",
"X, c #F7F8F9",
"X< c None",
/* pixels */
"X<X<X<X<X<X<X<X<X<X<X<X<X<X<X<X<X<X<X<.u ..` Y.}.}.}.}.}.}.}.}.}.}.}.}.}.}.}.}.}.}.}.}.}.}.}.}.}.}.}.}.}.}.}.}.}.}.}.}.}.}.}.}.}.}.}.}.}.}.}.}.}.}.}.}.}.}.}.}.}.}.}.}.}.}.}.}.}.}.}.}.}.}.}.}.}.}.}.}.}.}.}.}.} O.) e 7X<X<X<X<X<X<X<X<X<X<X<X<X<X<X<X<X<X<X<",
"X<X<X<X<X<X<X<X<X<X<X<X<X<X<X< 0.Z |.: ) ) ) ) ) ) ) ) ) ) ) ) ) ) ) ) ) ) ) ) ) ) ) ) ) ) ) ) ) ) ) ) ) ) ) ) ) ) ) ) ) ) ) ) ) ) ) ) ) ) ) ) ) ) ) ) ) ) ) ) ) ) ) ) ) ) ) ) ) ) ) ) ) ) ) ) ) ) ) ) ) ) ) ) ) ) ) ) ( h.r P 7X<X<X<X<X<X<X<X<X<X<X<X<X<X<X<",
"X<X<X<X<X<X<X<X<X<X<X<X<X<.).~.3 ) ) ) ) ) ) ) ) ) ) ) ) ) ) ) ) ) ) ) ) ) ) ) ) ) ) ) ) ) ) ) ) ) ) ) ) ) ) ) ) ) ) ) ) ) ) ) ) ) ) ) ) ) ) ) ) ) ) ) ) ) ) ) ) ) ) ) ) ) ) ) ) ) ) ) ) ) ) ) ) ) ) ) ) ) ) ) ) ) ) ) ) ) ) ).:.w 0X<X<X<X<X<X<X<X<X<X<X<X<X<",
"X<X<X<X<X<X<X<X<X<X<X<.O f ) ) ) ) ) ) ) ) ) ) ) ) ) ) ) ) ) ) ) ) ) ) ) ) ) ) ) ) ) ) ) ) ) ) ) ) ) ) ) ) ) ) ) ) ) ) ) ) ) ) ) ) ) ) ) ) ) ) ) ) ) ) ) ) ) ) ) ) ) ) ) ) ) ) ) ) ) ) ) ) ) ) ) ) ) ) ) ) ) ) ) ) ) ) ) ) ) ) ) )XX 4 8X<X<X<X<X<X<X<X<X<X<X<",
"X<X<X<X<X<X<X<X<X<.HX*Xo ) ) ) ) ) ) ) ) ) ) ) ) ) ) ) ) ) ) ) ) ) ) ) ) ) ) ) ) ) ) ) ) ) ) ) ) ) ) ) ) ) ) ) ) ) ) ) ) ) ) ) ) ) ) ) ) ) ) ) ) ) ) ) ) ) ) ) ) ) ) ) ) ) ) ) ) ) ) ) ) ) ) ) ) ) ) ) ) ) ) ) ) ) ) ) ) ) ) ) ) ) ) ).: OX<X<X<X<X<X<X<X<X<X<",
"X<X<X<X<X<X<X<X<.d j ) ) ) ) ) ) ) ) ) ) ) ) ) ) ) ).h u +.k.f ) ) ) ) ) ) ) ) ) ) ) ) ) ) ) ) ) ) ) ) ) ) ) ) ) ) ) ) ) ) ) ) ) ) ) ) ) ) ) ) ) ) ) ) ) ) ) ) ) ) ) ) ) ) ) ) ) ) ) ) ) ) ) ) ) ) ) ) ) ) ) ) ) ) ) ) ) ) ) ) ) ) ) ) ) >X$ NX<X<X<X<X<X<X<X<",
"X<X<X<X<X<X<X<.+.< ) ) ) ) ) ) ) ) ) ) ) ) ).k i 2.! % % % % % D ~ _X+ ) ) ) ) ) ) ) ) ) ) ) ) ) ) ) ) ) ) ) ) ) ) ) ) ) ) ) ) ) ) ) ) ) ) ) ) ) ) ) ) ) ) ) ) ) ) ) ) ) ) ) ) ) ) ) ) ) ) ) ) ) ) ) ) ) ) ) ) ) ) ) ) ) ) ) ) ) ) ) ) ) ) ).^.HX<X<X<X<X<X<X<",
"X<X<X<X<X<X<.@.2 ) ) ) ) ) ) ) ) ) ) ) ) @ ^ % % % % % % % % % % % %.=.z t ) ) ) ) ) ) ) ) ) ) ) ) ) ) ) ) ) ) ) ) ) ) ) ) ) ) ) ) ) ) ) ) ) ) ) ) ) ) ) ) ) ) ) ) ) ) ) ) ) ) ) ) ) ) ) ) ) ) ) ) ) ) ) ) ) ) ) ) ) ) ) ) ) ) ) ) ) ) ) ) ) ) K.yX<X<X<X<X<X<",
"X<X<X<X<X< . / ) ) ) ) ) ) ) ) ) ) ).o $ % % % % % % % % % % % % % % % %.= Z.K ) ) ) ) ) ) ) ) ) ) ) ) ) ) ) ) ) ) ) ) ) ) ) ) ) ) ) ) ) ) ) ) ) ) ) ) ) ) ) ) ) ) ) ) ) ) ) ) ) ) ) ) ) ) ) ) ) ) ) ) ) ) ) ) ) ) ) ) ) ) ) ) ) ) ) ) ) ) ) ) ) F 7X<X<X<X<X<",
"X<X<X<X< B k ) ) ) ) ) ) ) ) ) ) ).{ D % % % % % % % % % % % % % % % % % % %.q.o ) ) ) ) ) ) ) ) ) ) ) ) ) ) ) ) ) ) ) ) ) ) ) ) ) ) ) ) ) ) ) ) ) ) ) ) ) ) ) ) ) ) ) ) ) ) ) ) ) ) ) ) ) ) ) ) ) ) ) ) ) ) ) ) ) ) ) ) ) ) ) ) ) ) ) ) ) ) ) ) ) MX<X<X<X<X<",
"X<X<X<X<.  ) ) ) ) ) ) ) ) ) ) ) x.c % % % % % % % % % % % % % % % % % % % % % S.j ) ) ) ) ) ) ) ) ) ) ) ) ) ) ) ) ) ) ) ) ) ) ) ) ) ) ) ) ) ) ) ) ) ) ) ) ) ) ) ) ) ) ) ) ) ) ) ) ) ) ) ) ) ) ) ) ) ) ) ) ) ) ) ) ) ) ) ) ) ) ) ) ) ) ) ) ) ) ) )Xo.@X<X<X<X<",
"X<X<X< O ) ) ) ) ) ) ) ) ) ) ).B.v % % % % % % % % % % % % % % % % % % % % % % % [.U ) ) ) ) ) ) ) ) ) ) ) ) ) ) ) ) ) ) ) ) ) ) ) ) ) ) ) ) ) ) ) ) ) ) ) ) ) ) ) ) ) ) ) ) ) ) ) ) ) ) ) ) ) ) ) ) ) ) ) ) ) ) ) ) ) ) ) ) ) ) ) ) ) ) ) ) ) ) ) ).M NX<X<X<",
"X<X< N & ) ) ) ) ) ) ) ) ) ) t.x % % % % % % % % % % % % % % % % % % % % % % % % %.0.K ) ) ) ) ) ) ) ) ) ) ) ) ) ) ) ) ) ) ) ) ) / 6 O.s.y.J.X.S.( ) ) ) ) ) ) ) ) ) )X>X<X<X<X<X<X<X<X<X<X<X<X<./ ) ) )X>X<X<X<X<X<X<X<X<X<X<X<X<./ ) ) ) ) ) ) ) ) ).7X<X<X<",
"X<X< z ) ) ) ) ) ) ) ) ) ) ).D % % % % % % % % % % % % % % % % % % % % % % % % % % %X# ) ) ) ) ) ) ) ) ) ) ) ) ) ) ) ) ) ) ) )X; 0X<X<X<X<X<X<X<X<.`.N ) ) ) ) ) ) ) )X>X<X<X<X<X<X<X<X<X<X<X<X<./ ) ) )X>X<X<X<X<X<X<X<X<X<X<X<X<./ ) ) ) ) ) ) ) ) ) =.HX<X<",
"X<X<.M ) ) ) ) ) ) ) ) ) ) b % % % % % % % % % % % % % % % % % % % % % % % % % % % %.*.h ) ) ) ) ) ) ) ) ) ) ) ) ) ) ) ) ) ) mX<X<X<X<X<X<X<X<X<X<X<.p.m ) ) ) ) ) ) )X>X<X<X<X<X<X<X<X<X<X<X<X<./ ) ) )X>X<X<X<X<X<X<X<X<X<X<X<X<./ ) ) ) ) ) ) ) ) ) ) cX<X<",
"X< X ) ) ) ) ) ) ) ) ) ).K ] % % % % % % % % % % % % % % % % % % % % % % % % % % % % % p ) ) ) ) ) ) ) ) ) ) ) ) ) ) ) ) )X;X<X<X<X< X } K.~.7 BX<X<X<.a - ) ) ) ) ) )X>X<X<X< 5 & & & & & & & &.2 ) ) )X>X<X<X< 5 & & & & & & & &.2 ) ) ) ) ) ) ) ) ) ).nX<X<",
"X<.t ) ) ) ) ) ) ) ) ) ).| % % % % % % % % % % % % % % % % % % % % % % % % % % % % % %.!.L ) ) ) ) ) ) ) ) ) ) ) ) ) ) )., 8X<X<X< 4 > ) ) ) ).:.dX<X<X<.Z ) ) ) ) ) )X>X<X<X<X> ) ) ) ) ) ) ) ) ) ) ) )X>X<X<X<X> ) ) ) ) ) ) ) ) ) ) ) ) ) ) ) ) ) ) ) ) eX<",
"X<.M ) ) ) ) ) ) ) ) ) ) # % % % % % % % % % % % % % % % % % % % % % % % % % % % % % % % : ) ) ) ) ) ) ) ) ) ) ) ) ) ) ) 3X<X<X<.} ) ) ) ) ) ) ).; 7X<X< N * ) ) ) ) )X>X<X<X<X> ) ) ) ) ) ) ) ) ) ) ) )X>X<X<X<X> ) ) ) ) ) ) ) ) ) ) ) ) ) ) ) ) ) ) ) ) cX<",
".p ) ) ) ) ) ) ) ) ) ) ).R % % % % % % % % % % % % % % % % % % % % % % % % % % % % % % %.& ) ) ) ) ) ) ) ) ) ) ) ) ) ) ) eX<X<X< j ) ) ) ) ) ) ) ).VX<X<X< ' ) ) ) ) )X>X<X<X<X> ) ) ) ) ) ) ) ) ) ) ) )X>X<X<X<X> ) ) ) ) ) ) ) ) ) ) ) ) ) ) ) ) ) ) ) ) |X<",
"._ ) ) ) ) ) ) ) ) ) ) t % % % % % % % % % % % % % % % % % % % % % % % % % % % % % % % %X& ) ) ) ) ) ) ) ) ) ) ) ) ) ).:X<X<X<.) ) ) ) ) ) ) ) ) ).nX<X<X< T ) ) ) ) )X>X<X<X<X> ) ) ) ) ) ) ) ) ) ) ) )X>X<X<X<X> ) ) ) ) ) ) ) ) ) ) ) ) ) ) ) ) ) ) ) ) jX<",
" v ) ) ) ) ) ) ) ) ) ) E % % % % % % % % % % % % % % % % % % % % % % % % % % % % % % % %.v.6 ) ) ) ) ) ) ) ) ) ) ) ) ) JX<X<X< c ) ) ) ) ) ) ) ) ) -X<X<X<.. ) ) ) ) )X>X<X<X<X> ) ) ) ) ) ) ) ) ) ) ) )X>X<X<X<X> ) ) ) ) ) ) ) ) ) ) ) ) ) ) ) ) ) ) ) ) ( 7",
".w ) ) ) ) ) ) ) ) ) ).8 % % % % % % % % % % % % % % % % % % % % % % % % % % % % % % % % %.f ) ) ) ) ) ) ) ) ) ) ) ) )X:X<X<X<X$ ) ) ) ) ) ) ) ) ) ) BX<X<.i ) ) ) ) )X>X<X<X<X<X<X<X<X<X<X<.H ) ) ) ) )X>X<X<X<X<X<X<X<X<X<X<.H ) ) ) ) ) ) ) ) ) ) ) ) ) ) 9",
" 5 ) ) ) ) ) ) ) ) ) ) 1 % % % % % % % % % % % % % % % % % % % % % % % % % % % % % % % % % t ) ) ) ) ) ) ) ) ) ) ) ) ) {X<X<X<X; ) ) ) ) ) ) ) ) ) )..X<X<X< ) ) ) ) )X>X<X<X<X<X<X<X<X<X<X<.H ) ) ) ) )X>X<X<X<X<X<X<X<X<X<X<.H ) ) ) ) ) ) ) ) ) ) ) ) ) )X,",
".t ) ) ) ) ) ) ) ) ) ) , % % % % % % % % % % % % % % % % % % % % % % % % % % % % % % % % %.I ) ) ) ) ) ) ) ) ) ) ) ) )X>X<X<X<.w ) ) ) ) ) ) ) ) ) ).HX<X<.J ) ) ) ) )X>X<X<X<X<X<X<X<X<X<X<.H ) ) ) ) )X>X<X<X<X<X<X<X<X<X<X<.H ) ) ) ) ) ) ) ) ) ) ) ) ) )..",
" 4 ) ) ) ) ) ) ) ) ) ) W % % % % % % % % % % % % % % % % % % % % % % % % % % % % % % % % s.K ) ) ) ) ) ) ) ) ) ) ) ) )./X<X<X<.C ) ) ) ) ) ) ) ) ).,X<X<X<   ) ) ) ) )X>X<X<X< 5 & & & & & & & ) ) ) ) )X>X<X<X< 5 & & & & & & & ) ) ) ) ) ) ) ) ) ) ) ) ) ) V",
" < ) ) ) ) ) ) ) ) ) ).k % % % % % % % % % % % % % % % % % % % % % % % % % % % % % % % % [ ) ) ) ) ) ) ) ) ) ) ) ) ) ).,X<X<X<.O ) ) ) ) ) ) ) ) ) KX<X<X< R ) ) ) ) )X>X<X<X<X> ) ) ) ) ) ) ) ) ) ) ) )X>X<X<X<X> ) ) ) ) ) ) ) ) ) ) ) ) ) ) ) ) ) ) ) ) >.H",
" T ) ) ) ) ) ) ) ) ) ).K.W % % % % % % % % % % % % % % % % % % % % % % % % % % % % % % % Q ) ) ) ) ) ) ) ) ) ) ) ) ) ) ).dX<X<X< g ) ) ) ) ) ) ) ).[X<X<X<X- ) ) ) ) )X>X<X<X<X> ) ) ) ) ) ) ) ) ) ) ) )X>X<X<X<X> ) ) ) ) ) ) ) ) ) ) ) ) ) ) ) ) ) ) ) ).:X<",
".X ) ) ) ) ) ) ) ) ) ) ) $ % % % % % % % % % % % % % % % % % % % % % % % % % % % % % % % , ) ) ) ) ) ) ) ) ) ) ) ) ) ) ).rX<X<X<.[ ) ) ) ) ) ) ) jX<X<X< 8 - ) ) ) ) )X>X<X<X<X> ) ) ) ) ) ) ) ) ) ) ) )X>X<X<X<X> ) ) ) ) ) ) ) ) ) ) ) ) ) ) ) ) ) ) ) ) KX<",
" 7.< ) ) ) ) ) ) ) ) ) ).A % % % % % % % % % % % % % % % % % % % % % % % % % % % % % %.=.f ) ) ) ) ) ) ) ) ) ) ) ) ) ) ) /.JX<X<X<.w > ) ) ) ).N rX<X<X<.7 ) ) ) ) ) )X>X<X<X<X> ) ) ) ) ) ) ) ) ) ) ) )X>X<X<X<X> ) ) ) ) ) ) ) ) ) ) ) ) ) ) ) ) ) ) ) ).wX<",
"X<.~ ) ) ) ) ) ) ) ) ) )XO.T % % % % % % % % % % % % % % % % % % % % % % % % % % % % %.& ) ) ) ) ) ) ) ) ) ) ) ) ) ) ) ) ) FX<X<X<X< XX-.( H < BX<X<X<  XX ) ) ) ) ) )X>X<X<X<X> ) ) ) ) ) ) ) ) ) ) ) )X>X<X<X<X> ) ) ) ) ) ) ) ) ) ) ) ) ) ) ) ) ) ) ) ).)X<",
"X< l ) ) ) ) ) ) ) ) ) ) )X@ % % % % % % % % % % % % % % % % % % % % % % % % % % % % s y ) ) ) ) ) ) ) ) ) ) ) ) ) ) ) ) ) ) 4X<X<X<X<X<X<X<X<X<X<X<.a.; ) ) ) ) ) ) )X>X<X<X<X> ) ) ) ) ) ) ) ) ) ) ) )X>X<X<X<X> ) ) ) ) ) ) ) ) ) ) ) ) ) ) ) ) ) ) )., NX<",
"X< 8XX ) ) ) ) ) ) ) ) ) ).K ` % % % % % % % % % % % % % % % % % % % % % % % % % % %.l ) ) ) ) ) ) ) ) ) ) ) ) ) ) ) ) ) ) ) ) |.pX<X<X<X<X<X<X<X<.].> ) ) ) ) ) ) ) )X>X<X<X<X> ) ) ) ) ) ) ) ) ) ) ) )X>X<X<X<X> ) ) ) ) ) ) ) ) ) ) ) ) ) ) ) ) ) ) ) 5X<X<",
"X<X<.t ) ) ) ) ) ) ) ) ) ) ) u.! % % % % % % % % % % % % % % % % % % % % % % % % %X%.L ) ) ) ) ) ) ) ) ) ) ) ) ) ) ) ) ) ) ) ) ).1 } OX,.y.J.X.S L ) ) ) ) ) ) ) ) ) )X>X<X<X<X> ) ) ) ) ) ) ) ) ) ) ) )X>X<X<X<X> ) ) ) ) ) ) ) ) ) ) ) ) ) ) ) ) ) )Xo  X<X<",
"X<X<.a ( ) ) ) ) ) ) ) ) ) ) ).5X. % % % % % % % % % % % % % % % % % % % % % % %.E y ) ) ) ) ) ) ) ) ) ) ) ) ) ) ) ) ) ) ) ) ) ) ) ) ) ) ) ) ) ) ) ) ) ) ) ) ) ) ) ) ) ) ) ) ) ) ) ) ) ) ) ) ) ) ) ) ) ) ) ) ) ) ) ) ) ) ) ) ) ) ) ) ) ) ) ) ) ) ) ) )X>X<X<X<",
"X<X<X<.r ) ) ) ) ) ) ) ) ) ) ) )X@.b % % % % % % % % % % % % % % % % % % % % % a.$ ) ) ) ) ) ) ) ) ) ) ) ) ) ) ) ) ) ) ) ) ) ) ) ) ) ) ) ) ) ) ) ) ) ) ) ) ) ) ) ) ) ) ) ) ) ) ) ) ) ) ) ) ) ) ) ) ) ) ) ) ) ) ) ) ) ) ) ) ) ) ) ) ) ) ) ) ) ) ) ) ) (..X<X<X<",
"X<X<X<.u.: ) ) ) ) ) ) ) ) ) ) ) ).4.! % % % % % % % % % % % % % % % % % % %.Y.# ) ) ) ) ) ) ) ) ) ) ) ) ) ) ) ) ) ) ) ) ) ) ) ) ) ) ) ) ) ) ) ) ) ) ) ) ) ) ) ) ) ) ) ) ) ) ) ) ) ) ) ) ) ) ) ) ) ) ) ) ) ) ) ) ) ) ) ) ) ) ) ) ) ) ) ) ) ) ) ) ) ) 3X<X<X<X<",
"X<X<X<X< XXo ) ) ) ) ) ) ) ) ) ) ) ) u.F % % % % % % % % % % % % % % % %X..%.P ) ) ) ) ) ) ) ) ) ) ) ) ) ) ) ) ) ) ) ) ) ) ) ) ) ) ) ) ) ) ) ) ) ) ) ) ) ) ) ) ) ) ) ) ) ) ) ) ) ) ) ) ) ) ) ) ) ) ) ) ) ) ) ) ) ) ) ) ) ) ) ) ) ) ) ) ) ) ) ) ) ) h NX<X<X<X<",
"X<X<X<X<X< < ) ) ) ) ) ) ) ) ) ) ) ) ).K.8.Y % % % % % % % % % % % % % n U ) ) ) ) ) ) ) ) ) ) ) ) ) ) ) ) ) ) ) ) ) ) ) ) ) ) ) ) ) ) ) ) ) ) ) ) ) ) ) ) ) ) ) ) ) ) ) ) ) ) ) ) ) ) ) ) ) ) ) ) ) ) ) ) ) ) ) ) ) ) ) ) ) ) ) ) ) ) ) ) ) ) ) = wX<X<X<X<X<",
"X<X<X<X<X<X< ' ) ) ) ) ) ) ) ) ) ) ) ) ) ).6.B.&X= % % % % % %.-.e A u ) ) ) ) ) ) ) ) ) ) ) ) ) ) ) ) ) ) ) ) ) ) ) ) ) ) ) ) ) ) ) ) ) ) ) ) ) ) ) ) ) ) ) ) ) ) ) ) ) ) ) ) ) ) ) ) ) ) ) ) ) ) ) ) ) ) ) ) ) ) ) ) ) ) ) ) ) ) ) ) ) ) ) ).1.OX<X<X<X<X<X<",
"X<X<X<X<X<X< 7 6 ) ) ) ) ) ) ) ) ) ) ) ) ) ) ) ) ).f.{ ; : E.' C ) ) ) ) ) ) ) ) ) ) ) ) ) ) ) ) ) ) ) ) ) ) ) ) ) ) ) ) ) ) ) ) ) ) ) ) ) ) ) ) ) ) ) ) ) ) ) ) ) ) ) ) ) ) ) ) ) ) ) ) ) ) ) ) ) ) ) ) ) ) ) ) ) ) ) ) ) ) ) ) ) ) ) ) ) ) - oX<X<X<X<X<X<X<",
"X<X<X<X<X<X<X<X< 3 > ) ) ) ) ) ) ) ) ) ) ) ) ) ) ) ) ) ) ) ) ) ) ) ) ) ) ) ) ) ) ) ) ) ) ) ) ) ) ) ) ) ) ) ) ) ) ) ) ) ) ) ) ) ) ) ) ) ) ) ) ) ) ) ) ) ) ) ) ) ) ) ) ) ) ) ) ) ) ) ) ) ) ) ) ) ) ) ) ) ) ) ) ) ) ) ) ) ) ) ) ) ) ) ) ) ) ) &.XX<X<X<X<X<X<X<X<",
"X<X<X<X<X<X<X<X<X<.` = ) ) ) ) ) ) ) ) ) ) ) ) ) ) ) ) ) ) ) ) ) ) ) ) ) ) ) ) ) ) ) ) ) ) ) ) ) ) ) ) ) ) ) ) ) ) ) ) ) ) ) ) ) ) ) ) ) ) ) ) ) ) ) ) ) ) ) ) ) ) ) ) ) ) ) ) ) ) ) ) ) ) ) ) ) ) ) ) ) ) ) ) ) ) ) ) ) ) ) ) ) ) ) ) ) G 9X<X<X<X<X<X<X<X<X<",
"X<X<X<X<X<X<X<X<X<X<.JX*Xo ) ) ) ) ) ) ) ) ) ) ) ) ) ) ) ) ) ) ) ) ) ) ) ) ) ) ) ) ) ) ) ) ) ) ) ) ) ) ) ) ) ) ) ) ) ) ) ) ) ) ) ) ) ) ) ) ) ) ) ) ) ) ) ) ) ) ) ) ) ) ) ) ) ) ) ) ) ) ) ) ) ) ) ) ) ) ) ) ) ) ) ) ) ) ) ) ) ) ) ) ) *X X<X<X<X<X<X<X<X<X<X<X<",
"X<X<X<X<X<X<X<X<X<X<X<X< rX;Xo ) ) ) ) ) ) ) ) ) ) ) ) ) ) ) ) ) ) ) ) ) ) ) ) ) ) ) ) ) ) ) ) ) ) ) ) ) ) ) ) ) ) ) ) ) ) ) ) ) ) ) ) ) ) ) ) ) ) ) ) ) ) ) ) ) ) ) ) ) ) ) ) ) ) ) ) ) ) ) ) ) ) ) ) ) ) ) ) ) ) ) ) ) ) ) ) ).,.9 8X<X<X<X<X<X<X<X<X<X<X<X<",
"X<X<X<X<X<X<X<X<X<X<X<X<X<X< q < hXo ) ) ) ) ) ) ) ) ) ) ) ) ) ) ) ) ) ) ) ) ) ) ) ) ) ) ) ) ) ) ) ) ) ) ) ) ) ) ) ) ) ) ) ) ) ) ) ) ) ) ) ) ) ) ) ) ) ) ) ) ) ) ) ) ) ) ) ) ) ) ) ) ) ) ) ) ) ) ) ) ) ) ) ) ) ) ) ) ) ) ) -.Q.] NX<X<X<X<X<X<X<X<X<X<X<X<X<X<",
"X<X<X<X<X<X<X<X<X<X<X<X<X<X<X<X<X< 9 I < } F d K K K K K K K K K K K K K K K K K K K K K K K K K K K K K K K K K K K K K K K K K K K K K K K K K K K K K K K K K K K K K K K K K K K K K K K K K K K K K K K K K H.Q.r !.g 7X<X<X<X<X<X<X<X<X<X<X<X<X<X<X<X<X<"
};
