/* XPM */
static char *btn-on[] = {
/* width height ncolors chars_per_pixel */
"127 46 320 2",
/* colors */
"   c #2A676B",
" . c #F5F6F7",
" X c #208378",
" o c #2A7878",
" O c #9FA9B3",
" + c #1CB698",
" @ c #D6DBDF",
" # c #9BA5AF",
" $ c #247672",
" % c #334D60",
" & c #495C6F",
" * c #D5D9DE",
" = c #1A927F",
" - c #45586B",
" ; c #1FA991",
" : c #1FA791",
" > c #2F5C69",
" , c #297C7A",
" < c #1BB89A",
" 1 c #324F62",
" 2 c #EAECEF",
" 3 c #E8EAED",
" 4 c #199881",
" 5 c #E7EAEC",
" 6 c #E6E8EB",
" 7 c #1EAB93",
" 8 c #58697A",
" 9 c #2F626C",
" 0 c #919DA8",
" q c #2E606B",
" w c #2C6269",
" e c #2C6069",
" r c #219E8C",
" t c #C7CDD3",
" y c #1ABC9C",
" u c #217E75",
" i c #305563",
" p c #315364",
" a c #2A7374",
" s c #189C83",
" d c #71808F",
" f c #364A5F",
" g c #189A83",
" h c #267170",
" j c #6F7E8D",
" k c #FBFBFC",
" l c #1DAF95",
" z c #FAFBFB",
" x c #2E666E",
" c c #6D7C8B",
" v c #F9F9FA",
" b c #F8F9F9",
" n c #1C8F7D",
" m c #1C8D7D",
" M c #2B646B",
" N c #20A28E",
" B c #2F5965",
" V c #4E6173",
" C c #169E84",
" Z c #334C5F",
" A c #1CB397",
" S c #334A5F",
" D c #1B937F",
" F c #1B917F",
" G c #1FA690",
" H c #B8BFC7",
" J c #2F5D68",
" K c #B6BDC5",
" L c #229989",
" P c #607081",
" I c #325061",
" U c #1BB799",
" Y c #5F7080",
" T c #EBEDEF",
" R c #1BB599",
" E c #1A9781",
" W c #1EAA92",
" Q c #2C6168",
" ! c #3F5367",
" ~ c #CAD0D5",
" ^ c #3D5165",
" / c #219D8B",
" ( c #1ABB9B",
" ) c #1AB99B",
" _ c #305262",
" ` c #738190",
" ' c #FEFEFE",
" ] c #189982",
" [ c #707F8D",
" { c #1DAE94",
" } c #1DAC94",
" | c #A8B1BA",
".  c #1D8E7D",
".. c #20A18D",
".X c #526476",
".o c #506274",
".O c #2F5864",
".+ c #2F5664",
".@ c #2A7676",
".# c #DADDE1",
".$ c #179F84",
".% c #239486",
".& c #179D84",
".* c #344B5F",
".= c #2D696F",
".- c #BDC4CB",
".; c #1B927E",
".: c #26877F",
".> c #BBC2C9",
"., c #1FA38F",
".< c #F2F4F5",
".1 c #2E5C66",
".2 c #657585",
".3 c #F1F2F4",
".4 c #297A78",
".5 c #1CB699",
".6 c #324F60",
".7 c #324D60",
".8 c #1BB498",
".9 c #2C6D71",
".0 c #1A9680",
".q c #97A1AC",
".w c #258B81",
".e c #258981",
".r c #D0D5DA",
".t c #CED3D8",
".y c #2F606A",
".u c #405467",
".i c #2C5E67",
".p c #229C8B",
".a c #788694",
".s c #219A8A",
".d c #768492",
".f c #325363",
".g c #1ABA9A",
".h c #AFB8C0",
".j c #AEB6BF",
".k c #248D83",
".l c #276D6F",
".z c #1EAD94",
".x c #596B7C",
".c c #E1E4E7",
".v c #8D99A5",
".b c #209E8C",
".n c #315565",
".m c #2F5563",
".M c #2A7375",
".N c #374C61",
".B c #C3C9D0",
".V c #354A5F",
".C c #BFC5CC",
".Z c #27867F",
".A c #2A686B",
".S c #6B7A8A",
".D c #2A666B",
".F c #6A7A89",
".G c #26847E",
".H c #F4F5F6",
".J c #9EA8B2",
".K c #239788",
".L c #16A085",
".P c #334E60",
".I c #247572",
".U c #334C60",
".Y c #485B6E",
".T c #2C6A70",
".R c #D2D6DB",
".E c #258880",
".W c #29686D",
".Q c #7E8B99",
".! c #7D8B98",
".~ c #1F887A",
".^ c #7C8997",
"./ c #2D5D67",
".( c #229B8A",
".) c #B3BBC3",
"._ c #237974",
".` c #AFB7BF",
".' c #2C7073",
".] c #2B6E72",
".[ c #199981",
".{ c #1EAC93",
".} c #E5E7EA",
".| c #1EAA93",
"X  c #1D8A7B",
"X. c #28817C",
"XX c #909CA7",
"Xo c #8E9AA5",
"XO c #8C98A3",
"X+ c #227F76",
"X@ c #227D76",
"X# c #C6CCD2",
"X$ c #315464",
"X% c #2B7475",
"X& c #394D62",
"X* c #C4CAD0",
"X= c #249285",
"X- c #FDFEFE",
"X; c #189B83",
"X: c #249085",
"X> c #1DB095",
"X, c #2E676E",
"X< c #2D656D",
"X1 c #27857E",
"X2 c #2A656A",
"X3 c #A2ABB5",
"X4 c #A1ABB4",
"X5 c #305866",
"X6 c #2A7877",
"X7 c #2A7677",
"X8 c #4C5E71",
"X9 c #169F84",
"X0 c #D7DBDF",
"Xq c #334B5F",
"Xw c #495C6E",
"Xe c #2D6B70",
"Xr c #2C696F",
"Xt c #818E9B",
"Xy c #29696C",
"Xu c #1FA590",
"Xi c #305E69",
"Xp c #1F8779",
"Xa c #B3BAC2",
"Xs c #335162",
"Xd c #ECEEF0",
"Xf c #1BB899",
"Xg c #324F61",
"Xh c #1BB699",
"Xj c #EAECEE",
"Xk c #2C6F72",
"Xl c #5D6D7E",
"Xz c #199680",
"Xx c #286D6E",
"Xc c #949FAA",
"Xv c #2F626B",
"Xb c #2F606B",
"Xn c #CBD1D6",
"Xm c #287E7B",
"XM c #3E5266",
"XN c #227C75",
"XB c #3A4E62",
"XV c #315363",
"XC c #2B7174",
"XZ c #FFFFFF",
"XA c #FDFDFD",
"XS c #ABB4BD",
"XD c #A9B2BB",
"XF c #2E666D",
"XG c #2E646D",
"XH c #A7B0B9",
"XJ c #2B646A",
"XK c #556779",
"XL c #2B626A",
"XP c #536577",
"XI c #DFE2E6",
"XU c #315966",
"XY c #516375",
"XT c #DDE0E4",
"XR c #315766",
"XE c #218077",
"XW c #4F6173",
"XQ c #8895A1",
"X! c #8793A0",
"X~ c #344C5F",
"X^ c #344A5F",
"X/ c #1CB196",
"X( c #29686B",
"X) c #BAC1C8",
"X_ c #20A490",
"X` c #2E5966",
"X' c #647484",
"X] c #F0F1F3",
"X[ c #297978",
"X{ c #EFF1F2",
"X} c #9CA6B1",
"X| c #335061",
"o  c #334E61",
"o. c #324E60",
"oX c #1BB598",
"oo c #9AA4AF",
"oO c #2C6C71",
"o+ c #1A9580",
"o@ c #286C6D",
"o# c #286A6D",
"o$ c #44576B",
"o% c #43576A",
"o& c #CFD4D9",
"o* c #1EA891",
"o= c #CDD2D7",
"o- c #2F5F6A",
"o; c #1E887A",
"o: c #2D5F68",
"o> c #778593",
"o, c #1BBB9B",
"o< c #237B75",
"o1 c #325263",
"o2 c #315262",
"o3 c #ADB5BE",
"o4 c #27706F",
"o5 c #AAB3BB",
"o6 c #E2E5E8",
"o7 c #2B6369",
"o8 c #546677",
"o9 c #E0E3E6",
"o0 c #DEE1E4",
"oq c #209F8C",
"ow c #315665",
"oe c #217F76",
"or c #305664",
"ot c #249286",
"oy c #364B60",
"ou c #179D83",
"oi c #239285",
"op c #179B83",
"oa c #1DB296",
"os c #34495E",
"od c #2D676E",
"of c #1C907E",
"og c #F7F8F9",
"oh c None",
/* pixels */
"ohohohohohohohohohohohohohohohohohohohoh k To6 @ @ @ @ @ @ @ @ @ @ @ @ @ @ @ @ @ @ @ @ @ @ @ @ @ @ @ @ @ @ @ @ @ @ @ @ @ @ @ @ @ @ @ @ @ @ @ @ @ @ @ @ @ @ @ @ @ @ @ @ @ @ @ @ @ @ @ @ @ @ @ @ @ @ @ @ @ @ @ @ @.cXj vohohohohohohohohohohohohohohohohohohohoh",
"ohohohohohohohohohohohohohohohohXI |.dXY.Nososososososososososososososososososososososososososososososososososososososososososososososososososososososososososososososososososososososososososososososososososososos f V [X3X0ohohohohohohohohohohohohohohohoh",
"ohohohohohohohohohohohohohogo5XlosososososososososososososososososososososososososososososososososososososososososososososososososososososososososososososososososososososososososososososososososososososososososososososososXP O.3ohohohohohohohohohohohohoh",
"ohohohohohohohohohohoh zX4 -osososososososososososososososososososososososososososososososososososososososososososososososososososososososososososososososososososososososososososososososososososososososososososososososososososXMXc .ohohohohohohohohohohoh",
"ohohohohohohohohohoho=XPosososososososososososososososososososososososososososososososososososososososososososososososososososososososososososososososososososososososososososososososososososososososososososososososososososososososXw.-ohohohohohohohohohoh",
"ohohohohohohohohXAoooyososososososososososososososososososososososososososososososososososososososososososososososososososososososososososososososososososososososososososososososososososososososososososososososososososososososososososX! vohohohohohohohoh",
"ohohohohohohoh z.aososososososososososososososososososososososososososososososososososososososososososososososososososososososososososososososososososososososososososososososososososososososososososorXL.Wo@X( eXVosososososososososososos PX]ohohohohohohoh",
"ohohohohohoh v.FosososososososososososososososososososososososososososososososososososososososososososososososososososososososososososososososososososososososososososososososososososososososXq M X ].L.L.L.L.L.L.L EX+o:X^ososososososososos 8X]ohohohohohoh",
"ohohohohohXAo>osososososososososososososososososososososososososososososososososososososososososososososososososososososososososososososososososososososososososososososososososososososos SXxXz.L.L.L.L.L.L.L.L.L.L.L.L.L F.Dososososososososos Y .ohohohohoh",
"ohohohohohXcosososososososososososososososososososososososososososososososososososososososososososososososososososososososososososososososososososososososososososososososososososososos.Oof.L.L.L.L.L.L.L.L.L.L.L.L.L.L.L.L.Lo; _osososososososos.aohohohohoh",
"ohohohoh t fososososososososososososososososososososososososososososososososososososososososososososososososososososososososososososososososososososososososososososososososososososos.Aou.L.L.L.L.L.L.L.L.L.L.L.L.L.L.L.L.L.L.L ].iosososososososos.`ohohohoh",
"ohohoh b VosososososososososososososososososososososososososososososososososososososososososososososososososososososososososososososososososososososososososososososososososososososXx.L.L.L.L.L.L.L.L.L.L.L.L.L.L.L.L.L.L.L.L.L.L.&XLosososososososXM 2ohohoh",
"ohohoh.qososososososososososososososososososososososososososososososososososososososososososososososososososososososososososososososososososososososososososososososososososososos  .L.L.L.L.L.L.L.L.L.L.L.L.L.L.L.L.L.L.L.L.L.L.L.L.&.1ososososososos.!ohohoh",
"ohoh.3XMosososososososososososososososososososososososososX|X[.p { ).8 ;.kX,X^ososososososos a y y y /X^ososososososXv y y yXkososososososososososososososososososososososososos.+ s.L.L.L.L.L.L.L.L.L.L.L.L.L.L.L.L.L.L.L.L.L.L.L.L.L.0 Iosososososos fo0ohoh",
"ohohX}osososososososososososososososososososososososososX7 A y y y y y y y y.bXUosososososos a y y y yXrososososososXv y y yXkososososososososososososososososososososososososos m.L.L.L.L.L.L.L.L.L.L.L.L.L.L.L.L.L.L.L.L.L.L.L.L.L.L.LXEosososososososXtohoh",
"oh 'XWosososososososososososososososososososososososX^.: y y y y y y y y y y y A.yososososos a y y y y ; SosososososXv y y yXkososososososososososososososososososososososososo#.L.L.L.L.L.L.L.L.L.L.L.L.L.L.L.L.L.L.L.L.L.L.L.L.L.L.L.LX9./osososososos ^ .oh",
"oho&osososososososososososososososososososososososos.@ y y y yX_X[.=.].e + y y yX>o1osososos a y y y y yX7osososososXv y y yXkosososososososososososososososososososososososos D.L.L.L.L.L.L.L.L.L.L.L.L.L.L.L.L.L.L.L.L.L.L.L.L.L.L.L.L.LXpososososososos Koh",
"oh.qososososososososososososososososososososososos p < y y yX.osososososow ; y y yX:osososos a y yXh y yX/o ososososXv y y yXkososososososososososososososososososososososos Q.L.L.L.L.L.L.L.L.L.L.L.L.L.L.L.L.L.L.L.L.L.L.L.L.L.L.L.L.L.LX9 iosososososos.Qoh",
"ohX'ososososososososososososososososososososososos.G y y y.KosososososososXUo, y y ).nososos a y y N., y yX.ososososXv y y yXkososososososososososososososososososososososos u.L.L.L.L.L.L.L.L.L.L.L.L.L.L.L.L.L.L.L.L.L.L.L.L.L.L.L.L.L.L.L hosososososos &oh",
"oh !ososososososososososososososososososososososos.z y y yXbososososososososot y y y ,ososos a y y.|.9 y y UX$osososXv y y yXkosososososososososososososososososososososososo+.L.L.L.L.L.L.L.L.L.L.L.L.L.L.L.L.L.L.L.L.L.L.L.L.L.L.L.L.L.L.Lo;osososososososX{",
" 2osososososososososososososososososososososososow y y y Nososososososososos 9 y y y Lososos a y yoaX^o* y y.kosososXv y y yXkosososososososososososososososososososososos I.L.L.L.L.L.L.L.L.L.L.L.L.L.L.L.L.L.L.L.L.L.L.L.L.L.L.L.L.L.L.L.L gososososososos.r",
" *osososososososososososososososososososososososXe y y yX:osososososososososX| y y y.zososos a y y )X^XC y yo, >ososXv y y yXkosososososososososososososososososososososos./.L.L.L.L.L.L.L.L.L.L.L.L.L.L.L.L.L.L.L.L.L.L.L.L.L.L.L.L.L.L.L.L.L IososososososX)",
" ~osososososososososososososososososososososososX% y y yX.ososososososososososoX y y.5ososos a y y yo  S ; y y.sososXb y y yXkososososososososososososososososososososososo7.L.L.L.L.L.L.L.L.L.L.L.L.L.L.L.L.L.L.L.L.L.L.L.L.L.L.L.L.L.L.L.L.L.mosososososos.h",
"X#ososososososososososososososososososososososos.4 y y y oosososososososososos 7 y y (X^osos a y y yowos.T y y yXFosX5 y y yXkososososososososososososososososososososososX2.L.L.L.L.L.L.L.L.L.L.L.L.L.L.L.L.L.L.L.L.L.L.L.L.L.L.L.L.L.L.L.L.L.OososososososXD",
".tososososososososososososososososososososososos.M y y y.GosososososososososX^Xh y yoXososos a y y yXiosX^ r y yXuosXs y y yXkosososososososososososososososososososososos w.L.L.L.L.L.L.L.L.L.L.L.L.L.L.L.L.L.L.L.L.L.L.L.L.L.L.L.L.L.L.L.L.L iososososososXa",
".#osososososososososososososososososososososososXr y y yX=osososososososososo1 y y y.{ososos a y y y qososo- ( y y.9os ( y yXkosososososososososososososososososososososos B.L.L.L.L.L.L.L.L.L.L.L.L.L.L.L.L.L.L.L.L.L.L.L.L.L.L.L.L.L.L.L.L.L Zosososososos.C",
".Hososososososososososososososososososososososos.f y y y :osososososososososXF y y y.%ososos a y y y qosososoi y y.,X^ R y yXkosososososososososososososososososososososos.U.$.L.L.L.L.L.L.L.L.L.L.L.L.L.L.L.L.L.L.L.L.L.L.L.L.L.L.L.L.L.L.Lo+ososososososos.#",
"oh.Yososososososososososososososososososososososos.| y y yXGosososososososos.K y y yX6ososos a y y y qosososow < y yod.z y yXkososososososososososososososososososososososos. .L.L.L.L.L.L.L.L.L.L.L.L.L.L.L.L.L.L.L.L.L.L.L.L.L.L.L.L.L.L.LXEosososososos fog",
"oh `osososososososososososososososososososososososXm y y y.pX^osososososos J ( y yXfo1ososos a y y y qosososos.Z y yoq G y yXkososososososososososososososososososososososos.I.L.L.L.L.L.L.L.L.L.L.L.L.L.L.L.L.L.L.L.L.L.L.L.L.L.L.L.L.L.L.LXyosososososos.xoh",
"ohXHosososososososososososososososososososososososXsoX y y yX1osososososXR.{ y y y.wosososos a y y y qososososX| A y y.5 y yXkososososososososososososososososososososososos.+X9.L.L.L.L.L.L.L.L.L.L.L.L.L.L.L.L.L.L.L.L.L.L.L.L.L.L.L.L.Lop.PososososososXooh",
"oh.}.Vososososososososososososososososososososososos.' y y y yX_ o xoO.E.5 y y y }Xgosososos a y y y qososososos.4 y y y y yXkosososososososososososososososososososososososos.~.L.L.L.L.L.L.L.L.L.L.L.L.L.L.L.L.L.L.L.L.L.L.L.L.L.L.L.L.L._osososososososXnoh",
"ohoh.2ososososososososososososososososososososososososX. y y y y y y y y y y y l >ososososos a y y y qosososososX~.{ y y y yXkosososososososososososososososososososososososos.1.L.L.L.L.L.L.L.L.L.L.L.L.L.L.L.L.L.L.L.L.L.L.L.L.L.L.L.L so2ososososososX8X-oh",
"ohoh HosososososososososososososososososososososososososXCoa y y y y y y y y.(owosososososos a y y y qosososososos.] y y y yXkosososososososososososososososososososososososososX@.L.L.L.L.L.L.L.L.L.L.L.L.L.L.L.L.L.L.L.L.L.L.L.L.L.L.Lo4ososososososos.Johoh",
"ohohXA.Xososososososososososososososososososososososososos 1 o.p l.goX W.kX<osososososososos a y y y qososososososX^.. y y yXkososososososososososososososososososososososososos % =.L.L.L.L.L.L.L.L.L.L.L.L.L.L.L.L.L.L.L.L.L.L.L.L.LX  Sosososososos.u.<ohoh",
"ohohoh.>ososososososososososososososososososososososososososososososososososososososososososososososososososososososososososososososososososososososososososososososososososososos i.[.L.L.L.L.L.L.L.L.L.L.L.L.L.L.L.L.L.L.L.L.L.L.L.;.6osososososososX3ohohoh",
"ohohohoh.SosososososososososososososososososososososososososososososososososososososososososososososososososososososososososososososososososososososososososososososososososososososX` 4.L.L.L.L.L.L.L.L.L.L.L.L.L.L.L.L.L.L.L.L.L F _osososososososXK kohohoh",
"ohohohoh 3o$ososososososososososososososososososososososososososososososososososososososososososososososososososososososososososososososososososososososososososososososososososososos i n.L.L.L.L.L.L.L.L.L.L.L.L.L.L.L.L.L.L.LXp.6osososososososXB @ohohohoh",
"ohohohohoh.B fososososososososososososososososososososososososososososososososososososososososososososososososososososososososososososososososososososososososososososososososososososos.*.I C.L.L.L.L.L.L.L.L.L.L.L.L.L.L.LX;.lX^ososososososososXSohohohohoh",
"ohohohohohoho3ososososososososososososososososososososososososososososososososososososososososososososososososososososososososososososososososososososososososososososososososososososososos iXN.&.L.L.L.L.L.L.L.L.L.L.L g $ Iososososososososos 0ohohohohohoh",
"ohohohohohohohX3.Vososososososososososososososososososososososososososososososososososososososososososososososososososososososososososososososososososososososososososososososososososososososos.7X(oe.; C.L.L.Louofo<XJ.*ososososososososososXQ 'ohohohohohoh",
"ohohohohohohohohXaX&osososososososososososososososososososososososososososososososososososososososososososososososososososososososososososososososososososososososososososososososososososososososososososXgo2o.ososososososososososososos.VX}ohohohohohohohoh",
"ohohohohohohohohoh @.oosososososososososososososososososososososososososososososososososososososososososososososososososososososososososososososososososososososososososososososososososososososososososososososososososososososososososo%X*ohohohohohohohohoh",
"ohohohohohohohohohoh.H.v.Nososososososososososososososososososososososososososososososososososososososososososososososososososososososososososososososososososososososososososososososososososososososososososososososososososososos.V.!Xdohohohohohohohohohoh",
"ohohohohohohohohohohohohXT.^oyosososososososososososososososososososososososososososososososososososososososososososososososososososososososososososososososososososososososososososososososososososososososososososososososososos j.Rohohohohohohohohohohohoh",
"ohohohohohohohohohohohohohoh 6 #o8osososososososososososososososososososososososososososososososososososososososososososososososososososososososososososososososososososososososososososososososososososososososososososososX8 0XTohohohohohohohohohohohohohoh",
"ohohohohohohohohohohohohohohohohoh 5.)XX dXl.XXWXWXWXWXWXWXWXWXWXWXWXWXWXWXWXWXWXWXWXWXWXWXWXWXWXWXWXWXWXWXWXWXWXWXWXWXWXWXWXWXWXWXWXWXWXWXWXWXWXWXWXWXWXWXWXWXWXWXWXWXWXWXWXWXWXWXWXWXWXWXWXWXWXWXWXWXWXWXWXWXW.oXl cXO.jo9ohohohohohohohohohohohohohohohohoh"
};
