/* XPM */
static char *btn-off-dis[] = {
/* width height ncolors chars_per_pixel */
"127 46 213 2",
/* colors */
"   c #93BBBB",
" . c #8DDBCC",
" X c #F5F6F7",
" o c #8CDBCB",
" O c #F3F4F5",
" + c #96AEB4",
" @ c #9EA7B2",
" # c #9DA7B1",
" $ c #D7DBE0",
" % c #D3D7DC",
" & c #93C1BE",
" * c #D2D7DB",
" = c #92BFBD",
" - c #96B4B7",
" ; c #B4BCC4",
" : c #8FD0C7",
" > c #B2BAC2",
" , c #B0B8C0",
" < c #99A5B0",
" 1 c #AFB6BF",
" 2 c #98A5AF",
" 3 c #E9ECEE",
" 4 c #92C5C0",
" 5 c #E8EAED",
" 6 c #91C3BF",
" 7 c #E4E6E9",
" 8 c #95B8B9",
" 9 c #95B6B9",
" 0 c #8ED6C9",
" q c #C7CDD3",
" w c #98ABB2",
" e c #C5CBD1",
" r c #97A9B1",
" t c #C3C9CF",
" y c #91C9C2",
" u c #C1C7CD",
" i c #FBFBFC",
" p c #FAFBFB",
" a c #F9F9FA",
" s c #F8F9F9",
" d c #94BCBB",
" f c #94BABB",
" g c #8DDACB",
" h c #A3ACB6",
" j c #A1AAB4",
" k c #9FA8B2",
" l c #90CDC4",
" z c #D9DCE1",
" x c #D8DCE0",
" c c #90CBC4",
" v c #8CDCCD",
" b c #B8BFC7",
" n c #96B1B6",
" m c #95B1B5",
" M c #EFF1F3",
" N c #8FD1C6",
" B c #EDEFF1",
" V c #EBEDEF",
" C c #99A6AF",
" Z c #99A4AF",
" A c #92C2BF",
" S c #CDD2D8",
" D c #95B7B8",
" F c #CBD0D6",
" G c #8ED5C8",
" H c #C9CED4",
" J c #8ED3C8",
" K c #98A8B1",
" L c #FEFEFE",
" P c #91C6C1",
" I c #FCFCFC",
" U c #AAB3BC",
" Y c #A9B1BB",
" T c #A7AFB9",
" R c #94BBBA",
" E c #A6AFB8",
" W c #94B9BA",
" Q c #A5ADB7",
" ! c #8DD7CA",
" ~ c #DEE1E5",
" ^ c #DDE1E4",
" / c #97ACB3",
" ( c #90CAC3",
" ) c #BDC4CB",
" _ c #93BDBC",
" ` c #8CDBCC",
" ' c #F1F2F4",
" ] c #F0F2F3",
" [ c #96B0B5",
" { c #EFF0F2",
" } c #8FCEC5",
" | c #EDEEF0",
".  c #9BA5B0",
".. c #99A3AE",
".X c #92C1BE",
".o c #CFD3D9",
".O c #95B4B7",
".+ c #8ED2C7",
".@ c #98A7B0",
".# c #AEB6BF",
".$ c #E1E4E7",
".% c #94B8B9",
".& c #8DD6C9",
".* c #97ABB2",
".= c #97A9B2",
".- c #C3C9D0",
".; c #90C9C2",
".: c #C1C7CE",
".> c #93BCBB",
"., c #F6F7F8",
".< c #8DDCCC",
".1 c #8DDACC",
".2 c #9FA8B3",
".3 c #9EA8B2",
".4 c #90CDC5",
".5 c #8FCDC4",
".6 c #9DA6B1",
".7 c #9CA6B0",
".8 c #9BA4AF",
".9 c #D4D8DD",
".0 c #D3D8DC",
".q c #96B3B7",
".w c #95B3B6",
".e c #B3BBC3",
".r c #8ED1C6",
".t c #B2B9C2",
".y c #B1B9C1",
".u c #98A6AF",
".i c #92C4C0",
".p c #E7E9EC",
".a c #94B5B8",
".s c #8ED7C9",
".d c #8ED5C9",
".f c #C6CCD2",
".g c #98AAB2",
".h c #C4CAD0",
".j c #FDFEFE",
".k c #FBFCFC",
".l c #94BBBB",
".z c #8DD9CB",
".x c #A4ADB7",
".c c #A2ABB5",
".v c #97AEB4",
".b c #D9DDE1",
".n c #90CCC4",
".m c #D7DBDF",
".M c #93BFBD",
".N c #92BFBC",
".B c #8CDDCD",
".V c #B7BEC6",
".C c #B5BCC4",
".Z c #8FD0C6",
".A c #EEF0F2",
".S c #B3BAC2",
".D c #ECEEF0",
".F c #99A5AF",
".G c #EAECEE",
".H c #92C3BF",
".J c #CCD1D7",
".K c #95B6B8",
".L c #95B4B8",
".P c #CACFD5",
".I c #C9CFD4",
".U c #8ED4C8",
".Y c #C8CDD3",
".T c #98A9B1",
".R c #FFFFFF",
".E c #91C7C1",
".W c #FDFDFD",
".Q c #A8B0BA",
".! c #94BABA",
".~ c #8DD8CA",
".^ c #DDE0E4",
"./ c #DCE0E3",
".( c #DBDEE2",
".) c #97ADB3",
"._ c #90C9C3",
".` c #93BEBC",
".' c #BAC1C8",
".] c #8CDCCC",
".[ c #8CDACC",
".{ c #F3F5F6",
".} c #B8BFC6",
".| c #F1F3F4",
"X  c #96B1B5",
"X. c #F0F1F3",
"XX c #96AFB5",
"Xo c #90CFC6",
"XO c #9CA6B1",
"X+ c #9AA4AF",
"X@ c #99A4AE",
"X# c #92C2BE",
"X$ c #92C0BE",
"X% c #D0D4DA",
"X& c #95B5B7",
"X* c #95B3B7",
"X= c #8ED3C7",
"X- c #98A8B0",
"X; c #AFB7C0",
"X: c #92C6C1",
"X> c #ADB5BE",
"X, c #91C6C0",
"X< c #E2E5E8",
"X1 c #8ED7CA",
"X2 c #8DD7C9",
"X3 c #8DD5C9",
"X4 c #97ACB2",
"X5 c #97AAB2",
"X6 c #C0C6CD",
"X7 c #BFC6CC",
"X8 c #F9FAFB",
"X9 c #F7F8F9",
"X0 c None",
/* pixels */
"X0X0X0X0X0X0X0X0X0X0X0X0X0X0X0X0X0X0X0X0 L.,.| V V V V V V V V V V V V V V V V V V V V V V V V V V V V V V V V V V V V V V V V V V V V V V V V V V V V V V V V V V V V V V V V V V V V V V V V V V V V V V V V V { O iX0X0X0X0X0X0X0X0X0X0X0X0X0X0X0X0X0X0X0X0",
"X0X0X0X0X0X0X0X0X0X0X0X0X0X0X0X0 O $ ) U.7.............................................................................................................................................................................x ;.J.p LX0X0X0X0X0X0X0X0X0X0X0X0X0X0X0",
"X0X0X0X0X0X0X0X0X0X0X0X0X0.j.(.SX+.............................................................................................................................................................................................x H.{X0X0X0X0X0X0X0X0X0X0X0X0X0",
"X0X0X0X0X0X0X0X0X0X0X0 L x E....................................................................................................................................................................................................... .: XX0X0X0X0X0X0X0X0X0X0X0",
"X0X0X0X0X0X0X0X0X0X0 B ,...............................................................................................................................................................................................................2.9X0X0X0X0X0X0X0X0X0X0",
"X0X0X0X0X0X0X0X0X0.m.6.....................................................................................................................................................................................................................} sX0X0X0X0X0X0X0X0",
"X0X0X0X0X0X0X0X0.Y.................................@ n 9.! W.L.) Z.......................................................................................................................................................................... T 'X0X0X0X0X0X0X0",
"X0X0X0X0X0X0X0X6............................ + 6 J.B.B.B.B.B.B.B.1.4.! C...................................................................................................................................................................... h ]X0X0X0X0X0X0",
"X0X0X0X0X0X0 q.......................... [ l.B.B.B.B.B.B.B.B.B.B.B.B.B g.X.u.................................................................................................................................................................... Q.{X0X0X0X0X0",
"X0X0X0X0X0 x.........................uX,.].B.B.B.B.B.B.B.B.B.B.B.B.B.B.B.BX2.O.................................................................................................................................................................... 1.WX0X0X0X0",
"X0X0X0X0.A #...................... wX=.B.B.B.B.B.B.B.B.B.B.B.B.B.B.B.B.B.B.B.B.X.....................................................................................................................................................................YX0X0X0X0",
"X0X0X0X0 >......................X4X1.B.B.B.B.B.B.B.B.B.B.B.B.B.B.B.B.B.B.B.B.B.B P..................................................................................................................................................................X+ 3X0X0X0",
"X0X0X0.b...................... r 0.B.B.B.B.B.B.B.B.B.B.B.B.B.B.B.B.B.B.B.B.B.B.B.B A..................................................................................................................................................................X;X0X0X0",
"X0X0 L.Q.................... Z }.B.B.B.B.B.B.B.B.B.B.B.B.B.B.B.B.B.B.B.B.B.B.B.B.B.B.K...........................................@ d.n 0.<.zX= 4 n.................... 8.B.B.B.B.B.B.B.B.B.B.B.B.q...... 8.B.B.B.B.B.B.B.B.B.B.B.B.q....................X<X0X0",
"X0X0./...................... _.B.B.B.B.B.B.B.B.B.B.B.B.B.B.B.B.B.B.B.B.B.B.B.B.B.B.B.z.@.......................................!.z.B.B.B.B.B.B.B.B l.g................ 8.B.B.B.B.B.B.B.B.B.B.B.B.q...... 8.B.B.B.B.B.B.B.B.B.B.B.B.q.....................yX0X0",
"X0X0.C.....................@.[.B.B.B.B.B.B.B.B.B.B.B.B.B.B.B.B.B.B.B.B.B.B.B.B.B.B.B.B.i.....................................H.B.B.B.B.B.B.B.B.B.B.B.~ +.............. 8.B.B.B.B.B.B.B.B.B.B.B.B.q...... 8.B.B.B.B.B.B.B.B.B.B.B.B.q...................... MX0",
"X0 XX+.................... &.B.B.B.B.B.B.B.B.B.B.B.B.B.B.B.B.B.B.B.B.B.B.B.B.B.B.B.B.B ..T.................................!.B.B.B.B :  .w.a.i.1.B.B.B.s.@............ 8.B.B.B.`.*.*.*.*.*.*.*.*.u...... 8.B.B.B.`.*.*.*.*.*.*.*.*.u...................... FX0",
"X0.b.................... Z.s.B.B.B.B.B.B.B.B.B.B.B.B.B.B.B.B.B.B.B.B.B.B.B.B.B.B.B.B.B.B.`..............................X-.1.B.B.B.M Z........X5.U.B.B.B P............ 8.B.B.B 8........................ 8.B.B.B 8........................................X;X0",
"X0X6.................... n.B.B.B.B.B.B.B.B.B.B.B.B.B.B.B.B.B.B.B.B.B.B.B.B.B.B.B.B.B.B.B.+...............................X.B.B.B._..............X4.].B.B.] r.......... 8.B.B.B 8........................ 8.B.B.B 8.........................................8X8",
"X0X>.....................X.B.B.B.B.B.B.B.B.B.B.B.B.B.B.B.B.B.B.B.B.B.B.B.B.B.B.B.B.B.B.B.B K............................X3.B.B.B.v................ y.B.B.B _.......... 8.B.B.B 8........................ 8.B.B.B 8.......................................... 5",
"X0 @.....................n.B.B.B.B.B.B.B.B.B.B.B.B.B.B.B.B.B.B.B.B.B.B.B.B.B.B.B.B.B.B.B.B.q..........................X5.B.B.BXo.................. [.B.B.B c.......... 8.B.B.B 8........................ 8.B.B.B 8.......................................... z",
" a.......................&.B.B.B.B.B.B.B.B.B.B.B.B.B.B.B.B.B.B.B.B.B.B.B.B.B.B.B.B.B.B.B.B.>...........................O.B.B.BX:...................@.B.B.B.&.......... 8.B.B.B 8........................ 8.B.B.B 8.......................................... S",
".{.......................z.B.B.B.B.B.B.B.B.B.B.B.B.B.B.B.B.B.B.B.B.B.B.B.B.B.B.B.B.B.B.B.BX$...........................%.B.B.B.N.................... o.B.B.[.......... 8.B.B.B.B.B.B.B.B.B.B `.......... 8.B.B.B.B.B.B.B.B.B.B `............................ H",
" '...................... `.B.B.B.B.B.B.B.B.B.B.B.B.B.B.B.B.B.B.B.B.B.B.B.B.B.B.B.B.B.B.B.BX#...........................>.B.B.B.!.....................&.B.B.B.......... 8.B.B.B.B.B.B.B.B.B.B `.......... 8.B.B.B.B.B.B.B.B.B.B `............................ e",
" X.......................z.B.B.B.B.B.B.B.B.B.B.B.B.B.B.B.B.B.B.B.B.B.B.B.B.B.B.B.B.B.B.B.B.M.......................... W.B.B.B =.................... ..B.B.z.......... 8.B.B.B.B.B.B.B.B.B.B `.......... 8.B.B.B.B.B.B.B.B.B.B `.............................P",
" i...................... J.B.B.B.B.B.B.B.B.B.B.B.B.B.B.B.B.B.B.B.B.B.B.B.B.B.B.B.B.B.B.B.B.!...........................q.B.B.B.E..................X-.B.B.B.U.......... 8.B.B.B.`.*.*.*.*.*.*.*.......... 8.B.B.B.`.*.*.*.*.*.*.*............................X%",
"X0.c....................._.B.B.B.B.B.B.B.B.B.B.B.B.B.B.B.B.B.B.B.B.B.B.B.B.B.B.B.B.B.B.B.B [.......................... K.B.B.B.r..................X*.B.B.B.;.......... 8.B.B.B 8........................ 8.B.B.B 8.......................................... ^",
"X0.t.................... _.B.B.B.B.B.B.B.B.B.B.B.B.B.B.B.B.B.B.B.B.B.B.B.B.B.B.B.B.B.B.B ..F.............................U.B.B.B [................ c.B.B.B.l.......... 8.B.B.B 8........................ 8.B.B.B 8.......................................... |",
"X0 q.................... /.B.B.B.B.B.B.B.B.B.B.B.B.B.B.B.B.B.B.B.B.B.B.B.B.B.B.B.B.B.B.B.5...............................`.B.B.B.n.............. +.B.B.B.1.@.......... 8.B.B.B 8........................ 8.B.B.B 8.........................................3.W",
"X0.$.......................r.B.B.B.B.B.B.B.B.B.B.B.B.B.B.B.B.B.B.B.B.B.B.B.B.B.B.B.B.B.B.%...............................@.z.B.B.B & Z.........*.d.B.B.B.i............ 8.B.B.B 8........................ 8.B.B.B 8.........................................VX0",
"X0.k k.................... 8.B.B.B.B.B.B.B.B.B.B.B.B.B.B.B.B.B.B.B.B.B.B.B.B.B.B.B.B.B.s.F................................ D.B.B.B.B : f nX& 6 o.B.B.B G <............ 8.B.B.B 8........................ 8.B.B.B 8.........................................mX0",
"X0X0X6.......................U.B.B.B.B.B.B.B.B.B.B.B.B.B.B.B.B.B.B.B.B.B.B.B.B.B.B.B.B f.....................................M.B.B.B.B.B.B.B.B.B.B.B.s /.............. 8.B.B.B 8........................ 8.B.B.B 8......................................XO aX0",
"X0X0.G......................X .B.B.B.B.B.B.B.B.B.B.B.B.B.B.B.B.B.B.B.B.B.B.B.B.B.B.B NX@.......................................%.~.B.B.B.B.B.B.B.B.n.=................ 8.B.B.B 8........................ 8.B.B.B 8......................................X7X0X0",
"X0X0X0.C...................... A.B.B.B.B.B.B.B.B.B.B.B.B.B.B.B.B.B.B.B.B.B.B.B.B.B o /.......................................... C R.n !.<.z.U 4 m.................... 8.B.B.B 8........................ 8.B.B.B 8....................................X+ MX0X0",
"X0X0X0 VX+....................X@ (.B.B.B.B.B.B.B.B.B.B.B.B.B.B.B.B.B.B.B.B.B.B.B.]X*...................................................................................................................................................................:X0X0X0",
"X0X0X0X0.-.......................F.n.B.B.B.B.B.B.B.B.B.B.B.B.B.B.B.B.B.B.B.B.B `.K.................................................................................................................................................................. jX9X0X0X0",
"X0X0X0X0 p Y.........................i.B.B.B.B.B.B.B.B.B.B.B.B.B.B.B.B.B.B.BX1 m.................................................................................................................................................................... ~X0X0X0X0",
"X0X0X0X0X0.D #........................ -.d.B.B.B.B.B.B.B.B.B.B.B.B.B.B.B.B.E K.....................................................................................................................................................................fX0X0X0X0X0",
"X0X0X0X0X0X0 7. ........................ 2.>.d.B.B.B.B.B.B.B.B.B.B.B v cXX...................................................................................................................................................................... b LX0X0X0X0X0",
"X0X0X0X0X0X0X0.^. ............................ nX#.Z.z.B.B.B.].& (  .T.........................................................................................................................................................................V IX0X0X0X0X0X0",
"X0X0X0X0X0X0X0X0 7.2...................................u.T.@ Z.............................................................................................................................................................................. u.jX0X0X0X0X0X0X0",
"X0X0X0X0X0X0X0X0X0 OX;..................................................................................................................................................................................................................XO %X0X0X0X0X0X0X0X0X0",
"X0X0X0X0X0X0X0X0X0X0.W.o #.............................................................................................................................................................................................................CX.X0X0X0X0X0X0X0X0X0X0",
"X0X0X0X0X0X0X0X0X0X0X0X0.{.hXO....................................................................................................................................................................................................X;.$X0X0X0X0X0X0X0X0X0X0X0X0",
"X0X0X0X0X0X0X0X0X0X0X0X0X0X0., *X>.......................................................................................................................................................................................... j t 5X0X0X0X0X0X0X0X0X0X0X0X0X0X0",
"X0X0X0X0X0X0X0X0X0X0X0X0X0X0X0X0X0.,.^.I.'.# Y T T T T T T T T T T T T T T T T T T T T T T T T T T T T T T T T T T T T T T T T T T T T T T T T T T T T T T T T T T T T T T T T T T T T T T T T T T T T T T T T T TX>.e t.0.D LX0X0X0X0X0X0X0X0X0X0X0X0X0X0X0X0"
};
