/* XPM */
static char *check-on[] = {
/* width height ncolors chars_per_pixel */
"126 48 97 2",
/* colors */
"   c #677786",
" . c #297677",
" X c #334D60",
" o c #1CB498",
" O c #3B7678",
" + c #2F5C69",
" @ c #365766",
" # c #1BB89A",
" $ c #1ABC9C",
" % c #315364",
" & c #50B7A3",
" * c #FEFFFF",
" = c #1DAF95",
" - c #2E666E",
" ; c #3CB099",
" : c #6DC3B2",
" > c #1CB397",
" , c #D4EDE9",
" < c #1FA690",
" 1 c #2F5D68",
" 2 c #627283",
" 3 c #EDEFF1",
" 4 c #44B39D",
" 5 c #3F5367",
" 6 c #1ABB9B",
" 7 c #1AB99B",
" 8 c #2EAA91",
" 9 c #1DAE94",
" 0 c #179F84",
" q c #239486",
" w c #2D696F",
" e c #1FA58F",
" r c #1FA38F",
" t c #1BB498",
" y c #258981",
" u c #325363",
" i c #1BBA9B",
" p c #429D90",
" a c #248F83",
" s c #1EAD94",
" d c #209E8C",
" f c #315565",
" g c #2A7575",
" h c #26847E",
" j c #305B67",
" k c #9EA8B2",
" l c #239788",
" z c #16A085",
" x c #4A5D70",
" c c #6BC3B1",
" v c #485B6E",
" b c #49B5A0",
" n c #56BAA6",
" m c #E6E9EB",
" M c #1EAA93",
" N c #28817C",
" B c #3A4F63",
" V c #384D61",
" C c #C4CAD0",
" Z c #2A7274",
" A c #2D656D",
" S c #305866",
" D c #4C5E71",
" F c #344B60",
" G c #305E69",
" H c #297C79",
" J c #B3BAC2",
" K c #8BD0C2",
" L c #324F61",
" P c #1BB699",
" I c #E1F3EF",
" U c #2C6F72",
" Y c #2F626B",
" T c #287E7B",
" R c #CCEAE4",
" E c #54B9A6",
" W c #3A4E62",
" Q c #FFFFFF",
" ! c #86CEC0",
" ~ c #2E666D",
" ^ c #A7B0B9",
" / c #344C5F",
" ( c #344A5F",
" ) c #2D686F",
" _ c #3F8E87",
" ` c #335061",
" ' c #1BB598",
" ] c #2C6C71",
" [ c #41968C",
" { c #2F5F6A",
" } c #1BBB9B",
" | c #325263",
".  c #315665",
".. c #3E8782",
".X c #34495E",
".o c #2D676E",
".O c None",
/* pixels */
".O C v.X.X.X.X.X.X.X.X.X.X.X.X.X.X.X.X.X.X.X.X.X.X.X.X.X.X.X.X.X.X.X.X.X.X.X.X.X.X.X.X.X.X.X.X.X.X.X.X.X.X.X.X.X.X.X.X.X.X.X.X.X.X.X.X.X.X.X.X.X.X.X.X.X.X.X.X.X @ 0 z z z z z z z z z z z z z z z z z z z z z z z z z z z z z z z z z z z z z z z z z 4 I.O",
" 3 5.X.X.X.X.X.X.X.X.X.X.X.X.X.X.X.X.X.X.X.X.X.X.X.X.X.X.X.X.X.X.X.X.X.X.X.X.X.X.X.X.X.X.X.X.X.X.X.X.X.X.X.X.X.X.X.X.X.X.X.X.X.X.X.X.X.X.X.X.X.X.X.X.X.X.X.X.X.X O z z z z z z z z z z z z z z z z z z z z z z z z z z z z z z z z z z z z z z z z z z z b.O",
" ^.X.X.X.X.X.X.X.X.X.X.X.X.X.X.X.X.X.X.X.X.X.X.X.X.X.X.X.X.X.X.X.X.X.X.X.X.X.X.X.X.X.X.X.X.X.X.X.X.X.X.X.X.X.X.X.X.X.X.X.X.X.X.X.X.X.X.X.X.X.X.X.X.X.X.X.X.X.X.X.. z z z z z z z z z z z z z z z z z z z z z z z z z z z z z z z z z z z z z z z z z z z z ,",
"  .X.X.X.X.X.X.X.X.X.X.X.X.X.X.X.X.X.X.X.X.X.X.X.X.X.X.X.X.X.X.X.X.X.X.X.X.X.X.X.X.X.X.X.X.X.X.X.X.X.X.X.X.X.X.X.X.X.X.X.X.X.X.X.X.X.X.X.X.X.X.X.X.X.X.X.X.X.X.X _ z z z z z z z z z z z z z z z z z z z z z z z z z z z z z z z z z z z z z z z z z z z z K",
" D.X.X.X.X.X.X.X.X.X.X.X.X.X.X.X.X.X.X.X.X.X.X.X.X.X.X.X.X.X.X.X.X.X.X.X.X.X.X.X.X.X.X.X.X.X.X.X.X.X.X.X.X.X.X.X.X.X.X.X.X.X.X.X.X.X.X.X.X.X.X.X.X.X.X.X.X.X.X.X [ z z z z z z z z z z z z z z z z z z z z z z z z z z z z z z z z z z z z z z z z z z z z :",
" W.X.X.X.X.X.X.X.X.X.X.X.X.X.X.X.X.X.X.X.X.X.X.X.X.X.X.X.X.X.X.X.X.X.X.X.X.X.X.X.X.X.X.X.X.X.X.X.X.X.X.X.X.X.X.X.X.X.X.X.X.X.X.X.X.X.X.X.X.X.X.X.X.X.X.X.X.X.X.X p z z z z z z z z z z z z z z z z z z z z z z z z z z z z z z z z z z z z z z z z z z z z n",
".X.X.X.X.X.X.X.X.X.X.X.X.X.X.X.X.X.X.X.X.X.X.X.X.X.X.X.X.X.X.X.X.X.X.X.X.X.X.X.X.X.X.X.X.X.X.X.X.X.X.X.X.X.X.X.X.X.X.X.X.X.X.X.X.X.X.X.X.X.X.X.X.X.X.X.X.X.X.X.X p z z z z z z z z z z z z z z z z z z z z z z z z z z z z z z z z z z z z z z z z z z z z &",
".X.X.X.X.X.X.X.X.X.X.X.X.X.X.X.X.X.X.X.X.X.X.X.X.X.X.X.X.X.X.X.X.X.X.X.X.X.X.X.X.X.X.X.X.X.X.X.X.X.X.X.X.X.X.X.X.X.X.X.X.X.X.X.X.X.X.X.X.X.X.X.X.X.X.X.X.X.X.X.X p z z z z z z z z z z z z z z z z z z z z z z z z z z z z z z z z z z z z z z z z z z z z &",
".X.X.X.X.X.X.X.X.X.X.X.X.X.X.X.X.X.X.X.X.X.X.X.X.X.X.X.X.X.X.X.X.X.X.X.X.X.X.X.X.X.X.X.X.X.X.X.X.X.X.X.X.X.X.X.X.X.X.X.X.X.X.X.X.X.X.X.X.X.X.X.X.X.X.X.X.X.X.X.X p z z z z z z z z z z z z z z z z z z z z z z z z z z z z z z z z z z z z z z z z z z z z &",
".X.X.X.X.X.X.X.X.X.X.X.X.X.X.X.X.X.X.X.X.X.X.X.X.X.X.X.X.X.X.X.X.X.X.X.X.X.X.X.X.X.X.X.X.X.X.X.X.X.X.X.X.X.X.X.X.X.X.X.X.X.X.X.X.X.X.X.X.X.X.X.X.X.X.X.X.X.X.X.X p z z z z z z z z z z z z z z z z z z z z z z z z z z z z z z z z z z z z z z z z z z z z &",
".X.X.X.X.X.X.X.X.X.X.X.X.X.X.X.X.X.X.X.X.X.X.X.X.X.X.X.X.X.X.X.X.X.X.X.X.X.X.X.X.X.X.X.X.X.X.X.X.X.X.X.X.X.X.X.X.X.X.X.X.X.X.X.X.X.X.X.X.X.X.X.X.X.X.X.X.X.X.X.X p z z z z z z z z z z z z z z z z z z z z z z z z z z z z z z z z z z z z z z z z z z z z &",
".X.X.X.X.X.X.X.X.X.X.X.X.X.X.X.X.X.X.X.X.X.X.X.X.X.X.X.X.X.X.X.X.X.X.X.X.X.X.X.X.X.X.X.X.X.X.X.X.X.X.X.X.X.X.X.X.X.X.X.X.X.X.X.X.X.X.X.X.X.X.X.X.X.X.X.X.X.X.X.X p z z z z z z z z z z z z z z z z z z z z z z z z z z z z z z z z z z z z z z z z z z z z &",
".X.X.X.X.X.X.X.X.X.X.X.X.X.X.X.X.X.X.X.X.X.X.X.X.X.X.X.X.X.X.X.X.X.X.X.X.X.X.X.X.X.X.X.X.X.X.X.X.X.X.X.X.X.X.X.X.X.X.X.X.X.X.X.X.X.X.X.X.X.X.X.X.X.X.X.X.X.X.X.X p z z z z z z z z z z z z z z z z z z z z z z z z z z z z z z z z z z z z z z z z z z z z &",
".X.X.X.X.X.X.X.X.X.X.X.X.X.X.X.X.X.X.X.X.X.X.X.X.X.X.X.X.X.X.X.X.X.X.X.X.X.X.X.X.X.X.X.X.X.X.X.X.X.X.X.X.X.X.X.X.X.X.X.X.X.X.X.X.X.X.X.X.X.X.X.X.X.X.X.X.X.X.X.X p z z z z z z z z z z z z z z z z z z z z z z z z z z z z z z z z z z z z z z z z z z z z &",
".X.X.X.X.X.X.X.X.X.X.X.X.X.X.X.X.X.X.X.X.X.X.X.X.X.X.X.X.X.X.X.X.X.X.X.X.X.X.X.X.X.X.X.X.X.X.X.X.X.X.X.X.X.X.X.X.X.X.X.X.X.X.X.X.X.X.X.X.X.X.X.X.X.X.X.X.X.X.X.X p z z z z z z z z z z z z z z z z z z z z z z z z z z z z z z z z z z z z z z z z z z z z &",
".X.X.X.X.X.X.X.X.X.X.X.X.X.X.X.X.X.X.X.X.X.X.X.X.X.X.X.X.X.X.X.X.X.X.X.X.X.X.X.X.X.  ~ ~ {.X.X.X.X.X.X.X.X.X.X.X.X.X.X.X.X.X.X.X.X.X.X.X.X.X.X.X.X.X.X.X.X.X.X.X p z z z z z z z z z z z z z z z z z z z z z z z z z z z z z z z z z z z z z z z z z z z z &",
".X.X.X.X.X.X.X.X.X.X.X.X.X.X.X.X.X.X.X.X.X.X.X.X.X.X.X.X.X.X.X.X.X.X.X.X.X.X.X 1 d $ $ $ o F.X.X.X.X.X.X.X.X.X.X.X.X.X.X.X.X.X.X.X.X.X.X.X.X.X.X.X.X.X.X.X.X.X.X p z z z z z z z z z z z z z z z z z z z z z z z z z z z z z z z z z z z z z z z z z z z z &",
".X.X.X.X.X.X.X.X.X.X.X.X.X.X.X.X.X.X.X.X.X.X.X.X.X.X.X.X.X.X.X.X.X.X.X.X.X.X U # $ $ $ 7.o.X.X.X.X.X.X.X.X.X.X.X.X.X.X.X.X.X.X.X.X.X.X.X.X.X.X.X.X.X.X.X.X.X.X.X p z z z z z z z z z z z z z z z z z z z z z z z z z z z z z z z z z z z z z z z z z z z z &",
".X.X.X.X.X.X.X.X.X.X.X.X.X.X.X.X.X.X.X.X.X.X.X.X.X.X.X.X.X.X.X.X.X.X.X.X.X T 6 $ $ $ $ g.X.X.X.X.X.X.X.X.X.X.X.X.X.X.X.X.X.X.X.X.X.X.X.X.X.X.X.X.X.X.X.X.X.X.X.X p z z z z z z z z z z z z z z z z z z z z z z z z z z z z z z z z z z z z z z z z z z z z &",
".X.X.X.X.X.X.X.X.X.X.X.X.X.X.X.X.X.X.X.X.X.X.X.X.X.X.X.X.X.X.X.X.X.X.X.X H $ $ $ $ $ h.X.X.X.X.X.X.X.X.X.X.X.X.X.X.X.X.X.X.X.X.X.X.X.X.X.X.X.X.X.X.X.X.X.X.X.X.X p z z z z z z z z z z z z z z z z z z z z z z z z z z z z z z z z z z z z z z z z z z z z &",
".X.X.X.X.X.X.X.X.X.X.X.X.X.X.X.X.X.X.X.X.X.X.X.X.X.X.X.X.X.X.X.X.X.X.X . $ $ $ $ $ q (.X.X.X.X.X.X.X.X.X.X.X.X.X.X.X.X.X.X.X.X.X.X.X.X.X.X.X.X.X.X.X.X.X.X.X.X.X p z z z z z z z z z z z z z z z z z z z z z z z z z z z z z z z z z z z z z z z z z z z z &",
".X.X.X.X.X.X.X.X.X.X.X.X.X.X.X.X.X.X.X.X.X.X.X.X.X.X.X.X.X.X.X.X.X.X - i $ $ $ $ r X.X.X.X.X.X.X.X.X.X.X.X.X.X.X.X.X.X.X.X.X.X.X.X.X.X.X.X.X.X.X.X.X.X.X.X.X.X.X p z z z z z z z z z z z z z z z z z z z z z z z z z z z z z z z z z z z z z z z z z z z z &",
".X.X.X.X.X.X.X.X.X.X.X.X.X.X.X.X.X.X.X.X.X.X.X.X.X.X.X.X.X.X.X.X.X S > $ $ $ $ 9 u.X.X.X.X.X.X.X.X.X.X.X.X.X.X.X.X.X.X.X.X.X.X.X.X.X.X.X.X.X.X.X.X.X.X.X.X.X.X.X p z z z z z z z z z z z z z z z z z z z z z z z z z z z z z z z z z z z z z z z z z z z z &",
".X.X.X.X.X.X.X.X.X.X.X.X.X.X.X.X.X.X.X.X.X.X.X.X.X.X.X % g A.X.X F < $ $ $ $ P G.X.X.X.X.X.X.X.X.X.X.X.X.X.X.X.X.X.X.X.X.X.X.X.X.X.X.X.X.X.X.X.X.X.X.X.X.X.X.X.X p z z z z z z z z z z z z z z z z z z z z z z z z z z z z z z z z z z z z z z z z z z z z &",
".X.X.X.X.X.X.X.X.X.X.X.X.X.X.X.X.X.X.X.X.X.X.X.X.X / a i $ t X.X y $ $ $ $ 6 ].X.X.X.X.X.X.X.X.X.X.X.X.X.X.X.X.X.X.X.X.X.X.X.X.X.X.X.X.X.X.X.X.X.X.X.X.X.X.X.X.X p z z z z z z z z z z z z z z z z z z z z z z z z z z z z z z z z z z z z z z z z z z z z &",
".X.X.X.X.X.X.X.X.X.X.X.X.X.X.X.X.X.X.X.X.X.X.X.X.X ) $ $ $ $ Z w 6 $ $ $ $ N.X.X.X.X.X.X.X.X.X.X.X.X.X.X.X.X.X.X.X.X.X.X.X.X.X.X.X.X.X.X.X.X.X.X.X.X.X.X.X.X.X.X p z z z z z z z z z z z z z z z z z z z z z z z z z z z z z z z z z z z z z z z z z z z z &",
".X.X.X.X.X.X.X.X.X.X.X.X.X.X.X.X.X.X.X.X.X.X.X.X.X Y $ $ $ $ = > $ $ $ $ l (.X.X.X.X.X.X.X.X.X.X.X.X.X.X.X.X.X.X.X.X.X.X.X.X.X.X.X.X.X.X.X.X.X.X.X.X.X.X.X.X.X.X p z z z z z z z z z z z z z z z z z z z z z z z z z z z z z z z z z z z z z z z z z z z z &",
".X.X.X.X.X.X.X.X.X.X.X.X.X.X.X.X.X.X.X.X.X.X.X.X.X ` 6 $ $ $ $ $ $ $ $ M L.X.X.X.X.X.X.X.X.X.X.X.X.X.X.X.X.X.X.X.X.X.X.X.X.X.X.X.X.X.X.X.X.X.X.X.X.X.X.X.X.X.X.X p z z z z z z z z z z z z z z z z z z z z z z z z z z z z z z z z z z z z z z z z z z z z &",
".X.X.X.X.X.X.X.X.X.X.X.X.X.X.X.X.X.X.X.X.X.X.X.X.X.X e $ $ $ $ $ $ $ # +.X.X.X.X.X.X.X.X.X.X.X.X.X.X.X.X.X.X.X.X.X.X.X.X.X.X.X.X.X.X.X.X.X.X.X.X.X.X.X.X.X.X.X.X p z z z z z z z z z z z z z z z z z z z z z z z z z z z z z z z z z z z z z z z z z z z z &",
".X.X.X.X.X.X.X.X.X.X.X.X.X.X.X.X.X.X.X.X.X.X.X.X.X.X N $ $ $ $ $ $ $ g.X.X.X.X.X.X.X.X.X.X.X.X.X.X.X.X.X.X.X.X.X.X.X.X.X.X.X.X.X.X.X.X.X.X.X.X.X.X.X.X.X.X.X.X.X p z z z z z z z z z z z z z z z z z z z z z z z z z z z z z z z z z z z z z z z z z z z z &",
".X.X.X.X.X.X.X.X.X.X.X.X.X.X.X.X.X.X.X.X.X.X.X.X.X.X.  } $ $ $ $ $ l.X.X.X.X.X.X.X.X.X.X.X.X.X.X.X.X.X.X.X.X.X.X.X.X.X.X.X.X.X.X.X.X.X.X.X.X.X.X.X.X.X.X.X.X.X.X p z z z z z z z z z z z z z z z z z z z z z z z z z z z z z z z z z z z z z z z z z z z z &",
".X.X.X.X.X.X.X.X.X.X.X.X.X.X.X.X.X.X.X.X.X.X.X.X.X.X.X l $ $ $ $ ' u.X.X.X.X.X.X.X.X.X.X.X.X.X.X.X.X.X.X.X.X.X.X.X.X.X.X.X.X.X.X.X.X.X.X.X.X.X.X.X.X.X.X.X.X.X.X p z z z z z z z z z z z z z z z z z z z z z z z z z z z z z z z z z z z z z z z z z z z z &",
".X.X.X.X.X.X.X.X.X.X.X.X.X.X.X.X.X.X.X.X.X.X.X.X.X.X.X j = $ $ s ).X.X.X.X.X.X.X.X.X.X.X.X.X.X.X.X.X.X.X.X.X.X.X.X.X.X.X.X.X.X.X.X.X.X.X.X.X.X.X.X.X.X.X.X.X.X.X p z z z z z z z z z z z z z z z z z z z z z z z z z z z z z z z z z z z z z z z z z z z z &",
".X.X.X.X.X.X.X.X.X.X.X.X.X.X.X.X.X.X.X.X.X.X.X.X.X.X.X.X ( f |.X.X.X.X.X.X.X.X.X.X.X.X.X.X.X.X.X.X.X.X.X.X.X.X.X.X.X.X.X.X.X.X.X.X.X.X.X.X.X.X.X.X.X.X.X.X.X.X.X p z z z z z z z z z z z z z z z z z z z z z z z z z z z z z z z z z z z z z z z z z z z z &",
".X.X.X.X.X.X.X.X.X.X.X.X.X.X.X.X.X.X.X.X.X.X.X.X.X.X.X.X.X.X.X.X.X.X.X.X.X.X.X.X.X.X.X.X.X.X.X.X.X.X.X.X.X.X.X.X.X.X.X.X.X.X.X.X.X.X.X.X.X.X.X.X.X.X.X.X.X.X.X.X p z z z z z z z z z z z z z z z z z z z z z z z z z z z z z z z z z z z z z z z z z z z z &",
".X.X.X.X.X.X.X.X.X.X.X.X.X.X.X.X.X.X.X.X.X.X.X.X.X.X.X.X.X.X.X.X.X.X.X.X.X.X.X.X.X.X.X.X.X.X.X.X.X.X.X.X.X.X.X.X.X.X.X.X.X.X.X.X.X.X.X.X.X.X.X.X.X.X.X.X.X.X.X.X p z z z z z z z z z z z z z z z z z z z z z z z z z z z z z z z z z z z z z z z z z z z z &",
".X.X.X.X.X.X.X.X.X.X.X.X.X.X.X.X.X.X.X.X.X.X.X.X.X.X.X.X.X.X.X.X.X.X.X.X.X.X.X.X.X.X.X.X.X.X.X.X.X.X.X.X.X.X.X.X.X.X.X.X.X.X.X.X.X.X.X.X.X.X.X.X.X.X.X.X.X.X.X.X p z z z z z z z z z z z z z z z z z z z z z z z z z z z z z z z z z z z z z z z z z z z z &",
".X.X.X.X.X.X.X.X.X.X.X.X.X.X.X.X.X.X.X.X.X.X.X.X.X.X.X.X.X.X.X.X.X.X.X.X.X.X.X.X.X.X.X.X.X.X.X.X.X.X.X.X.X.X.X.X.X.X.X.X.X.X.X.X.X.X.X.X.X.X.X.X.X.X.X.X.X.X.X.X p z z z z z z z z z z z z z z z z z z z z z z z z z z z z z z z z z z z z z z z z z z z z &",
".X.X.X.X.X.X.X.X.X.X.X.X.X.X.X.X.X.X.X.X.X.X.X.X.X.X.X.X.X.X.X.X.X.X.X.X.X.X.X.X.X.X.X.X.X.X.X.X.X.X.X.X.X.X.X.X.X.X.X.X.X.X.X.X.X.X.X.X.X.X.X.X.X.X.X.X.X.X.X.X p z z z z z z z z z z z z z z z z z z z z z z z z z z z z z z z z z z z z z z z z z z z z &",
".X.X.X.X.X.X.X.X.X.X.X.X.X.X.X.X.X.X.X.X.X.X.X.X.X.X.X.X.X.X.X.X.X.X.X.X.X.X.X.X.X.X.X.X.X.X.X.X.X.X.X.X.X.X.X.X.X.X.X.X.X.X.X.X.X.X.X.X.X.X.X.X.X.X.X.X.X.X.X.X p z z z z z z z z z z z z z z z z z z z z z z z z z z z z z z z z z z z z z z z z z z z z &",
".X.X.X.X.X.X.X.X.X.X.X.X.X.X.X.X.X.X.X.X.X.X.X.X.X.X.X.X.X.X.X.X.X.X.X.X.X.X.X.X.X.X.X.X.X.X.X.X.X.X.X.X.X.X.X.X.X.X.X.X.X.X.X.X.X.X.X.X.X.X.X.X.X.X.X.X.X.X.X.X p z z z z z z z z z z z z z z z z z z z z z z z z z z z z z z z z z z z z z z z z z z z z &",
".X.X.X.X.X.X.X.X.X.X.X.X.X.X.X.X.X.X.X.X.X.X.X.X.X.X.X.X.X.X.X.X.X.X.X.X.X.X.X.X.X.X.X.X.X.X.X.X.X.X.X.X.X.X.X.X.X.X.X.X.X.X.X.X.X.X.X.X.X.X.X.X.X.X.X.X.X.X.X.X p z z z z z z z z z z z z z z z z z z z z z z z z z z z z z z z z z z z z z z z z z z z z &",
" V.X.X.X.X.X.X.X.X.X.X.X.X.X.X.X.X.X.X.X.X.X.X.X.X.X.X.X.X.X.X.X.X.X.X.X.X.X.X.X.X.X.X.X.X.X.X.X.X.X.X.X.X.X.X.X.X.X.X.X.X.X.X.X.X.X.X.X.X.X.X.X.X.X.X.X.X.X.X.X p z z z z z z z z z z z z z z z z z z z z z z z z z z z z z z z z z z z z z z z z z z z z E",
" x.X.X.X.X.X.X.X.X.X.X.X.X.X.X.X.X.X.X.X.X.X.X.X.X.X.X.X.X.X.X.X.X.X.X.X.X.X.X.X.X.X.X.X.X.X.X.X.X.X.X.X.X.X.X.X.X.X.X.X.X.X.X.X.X.X.X.X.X.X.X.X.X.X.X.X.X.X.X.X p z z z z z z z z z z z z z z z z z z z z z z z z z z z z z z z z z z z z z z z z z z z z c",
" 2.X.X.X.X.X.X.X.X.X.X.X.X.X.X.X.X.X.X.X.X.X.X.X.X.X.X.X.X.X.X.X.X.X.X.X.X.X.X.X.X.X.X.X.X.X.X.X.X.X.X.X.X.X.X.X.X.X.X.X.X.X.X.X.X.X.X.X.X.X.X.X.X.X.X.X.X.X.X.X p z z z z z z z z z z z z z z z z z z z z z z z z z z z z z z z z z z z z z z z z z z z z !",
" k.X.X.X.X.X.X.X.X.X.X.X.X.X.X.X.X.X.X.X.X.X.X.X.X.X.X.X.X.X.X.X.X.X.X.X.X.X.X.X.X.X.X.X.X.X.X.X.X.X.X.X.X.X.X.X.X.X.X.X.X.X.X.X.X.X.X.X.X.X.X.X.X.X.X.X.X.X.X.X p z z z z z z z z z z z z z z z z z z z z z z z z z z z z z z z z z z z z z z z z z z z z R",
" m W.X.X.X.X.X.X.X.X.X.X.X.X.X.X.X.X.X.X.X.X.X.X.X.X.X.X.X.X.X.X.X.X.X.X.X.X.X.X.X.X.X.X.X.X.X.X.X.X.X.X.X.X.X.X.X.X.X.X.X.X.X.X.X.X.X.X.X.X.X.X.X.X.X.X.X.X.X.X p z z z z z z z z z z z z z z z z z z z z z z z z z z z z z z z z z z z z z z z z z z z ; *",
".O J B.X.X.X.X.X.X.X.X.X.X.X.X.X.X.X.X.X.X.X.X.X.X.X.X.X.X.X.X.X.X.X.X.X.X.X.X.X.X.X.X.X.X.X.X.X.X.X.X.X.X.X.X.X.X.X.X.X.X.X.X.X.X.X.X.X.X.X.X.X.X.X.X.X.X.X.X.X p z z z z z z z z z z z z z z z z z z z z z z z z z z z z z z z z z z z z z z z z z z 8 ,.O"
};
