/* XPM */
static char *noname[] = {
/* width height ncolors chars_per_pixel */
"72 72 557 2",
/* colors */
"   c Gray42",
" . c #D6D6D3",
" X c #D6D6D4",
" o c #D6D6D5",
" O c #D6D7D4",
" + c #D6D7D5",
" @ c #E8E8E7",
" # c #E8E9E7",
" $ c #E8E9E8",
" % c #242323",
" & c Gray14",
" * c #FAFAF9",
" = c Gray98",
" - c #363635",
" ; c Gray21",
" : c #A1A1A0",
" > c #A1A29F",
" , c #484848",
" < c #B3B3B2",
" 1 c Gray70",
" 2 c #C5C5C4",
" 3 c #C5C6C3",
" 4 c #C5C7C4",
" 5 c #D7D7D5",
" 6 c #D7D7D6",
" 7 c #D7D7D7",
" 8 c #D7D8D5",
" 9 c #D7D8D6",
" 0 c #D7D9D7",
" q c #E9E9E7",
" w c #E9E9E8",
" e c #E9EAE8",
" r c #E9EAE9",
" t c #252525",
" y c #909090",
" u c #252625",
" i c #FBFBFA",
" p c #FBFBFB",
" a c #90918F",
" s c #373736",
" d c #373737",
" f c #A2A2A2",
" g c #494949",
" h c #B4B4B3",
" j c #B4B5B3",
" k c #5B5B5B",
" l c #C6C6C6",
" z c #C6C7C4",
" x c #C6C8C4",
" c c #D8D8D6",
" v c #D8D8D7",
" b c #6D6E6C",
" n c #D8D9D6",
" m c #D8D9D7",
" M c #D8D9D8",
" N c Gray50",
" B c #EAEAE9",
" V c #EAEAEA",
" C c #EAEBE9",
" Z c #EAEBEA",
" A c Gray15",
" S c #91918F",
" D c Gray57",
" F c #FCFCFB",
" G c Gray99",
" H c Gray22",
" J c #A3A3A1",
" K c #A3A3A2",
" L c Gray64",
" P c #4A4A49",
" I c #B5B5B3",
" U c Gray71",
" Y c #B5B6B4",
" T c #5C5C5B",
" R c #C7C7C5",
" E c #C7C8C5",
" W c #C7C8C6",
" Q c #C7C8C7",
" ! c #C7C9C7",
" ~ c #D9D9D7",
" ^ c #D9D9D8",
" / c #6E6F6D",
" ( c #D9DAD7",
" ) c #D9DAD8",
" _ c #D9DAD9",
" ` c #D9DBD8",
" ' c #80807F",
" ] c #EBEBEA",
" [ c Gray92",
" { c #EBECEB",
" } c #272727",
" | c #FDFDFC",
".  c #FDFDFD",
".. c #393939",
".X c #A4A4A2",
".o c #A4A4A3",
".O c #A4A4A4",
".+ c #4B4B4B",
".@ c #B6B6B4",
".# c #B6B6B6",
".$ c #B6B8B6",
".% c #5D5D5C",
".& c #5D5D5D",
".* c #C8C8C7",
".= c #C8C8C8",
".- c #C8C9C6",
".; c #C8C9C7",
".: c #C8CAC7",
".> c #DADAD8",
"., c #DADAD9",
".< c #DADADA",
".1 c #DADBD8",
".2 c #DADBD9",
".3 c #81817F",
".4 c #ECECEB",
".5 c #ECECEC",
".6 c #ECEDEB",
".7 c #ECEDEC",
".8 c #282727",
".9 c #282828",
".0 c #939392",
".q c #939393",
".w c #FEFEFE",
".e c #939491",
".r c #3A3A3A",
".t c #A5A5A3",
".y c #A5A6A3",
".u c #A5A6A4",
".i c #4C4C4C",
".p c #B7B7B6",
".a c #B7B7B7",
".s c #B7B8B6",
".d c Gray37",
".f c #C9C9C8",
".g c #C9CAC7",
".h c #C9CAC8",
".j c #C9CBC8",
".k c #DBDBD9",
".l c #DBDBDA",
".z c #DBDCD9",
".x c #DBDCDA",
".c c #DBDCDB",
".v c Gray51",
".b c #EDEDEC",
".n c Gray93",
".m c #EDEEED",
".M c Gray16",
".N c Gray58",
".B c White",
".V c #3B3A3A",
".C c Gray23",
".Z c #A6A6A4",
".A c Gray65",
".S c #A6A7A4",
".D c #4D4D4C",
".F c Gray30",
".G c #B8B8B7",
".H c #5F5E5E",
".J c #5F5F5E",
".K c #CACAC8",
".L c #CACAC9",
".P c #5F605F",
".I c #CACBC7",
".U c #CACBC8",
".Y c #CACBC9",
".T c #CACCCA",
".R c #DCDCDA",
".E c #DCDCDB",
".W c Gainsboro",
".Q c #DCDDDA",
".! c #DCDDDB",
".~ c #DCDDDC",
".^ c #838381",
"./ c #838382",
".( c #838383",
".) c #EEEEED",
"._ c #EEEEEE",
".` c #EEEFEE",
".' c #2A2A2A",
".] c #959594",
".[ c #959595",
".{ c #959694",
".} c #A7A7A6",
".| c #A7A8A6",
"X  c #4E4E4D",
"X. c #4E4E4E",
"XX c #B9B9B8",
"Xo c #B9BAB7",
"XO c #CBCBCA",
"X+ c #CBCBCB",
"X@ c #CBCCC9",
"X# c #CBCCCA",
"X$ c #727272",
"X% c #DDDDDB",
"X& c #DDDDDC",
"X* c #DDDDDD",
"X= c #DDDEDC",
"X- c #DDDEDD",
"X; c #848482",
"X: c #EFEFEE",
"X> c #EFEFEF",
"X, c #EFF0EF",
"X< c Gray17",
"X1 c #969694",
"X2 c #969695",
"X3 c Gray24",
"X4 c #A8A8A7",
"X5 c Gray66",
"X6 c #A8A9A7",
"X7 c Gray73",
"X8 c #BABBB8",
"X9 c #BABBB9",
"X0 c #BABBBA",
"Xq c Gray38",
"Xw c #CCCCCA",
"Xe c #CCCDCA",
"Xr c #CCCDCB",
"Xt c #CCCECB",
"Xy c #737372",
"Xu c Gray45",
"Xi c #DEDEDB",
"Xp c #DEDEDD",
"Xa c #737472",
"Xs c #DEDFDC",
"Xd c #DEDFDD",
"Xf c Gray52",
"Xg c #F0F0EF",
"Xh c Gray94",
"Xj c #F0F1F0",
"Xk c #2C2C2C",
"Xl c #979896",
"Xz c #3E3E3E",
"Xx c #A9A9A7",
"Xc c #A9A9A8",
"Xv c #A9AAA8",
"Xb c #BBBBB9",
"Xn c #BBBCB9",
"Xm c #BBBCBA",
"XM c #CDCDCB",
"XN c #CDCDCD",
"XB c #CDCECB",
"XV c #CDCECC",
"XC c #CDCECD",
"XZ c #CDCFCD",
"XA c #DFDFDE",
"XS c #DFDFDF",
"XD c #747573",
"XF c #747574",
"XG c #DFE0DE",
"XH c #868684",
"XJ c #868686",
"XK c #F1F1F0",
"XL c #F1F1F1",
"XP c #868785",
"XI c #F1F2F1",
"XU c #2D2C2C",
"XY c #2D2D2D",
"XT c #989896",
"XR c #989898",
"XE c #3F3F3F",
"XW c #AAAAA8",
"XQ c #AAAAAA",
"X! c #AAABA9",
"X~ c #515150",
"X^ c #515151",
"X/ c #BCBCBA",
"X( c #BCBDBA",
"X) c #CECFCC",
"X_ c #CECFCD",
"X` c #CED0CD",
"X' c #757574",
"X] c #E0E0DE",
"X[ c #E0E0DF",
"X{ c Gray88",
"X} c #E0E1DF",
"X| c #F2F2F1",
"o  c Gray95",
"o. c #878886",
"oX c #2E2E2D",
"oo c Gray18",
"oO c #999997",
"o+ c #2E2F2E",
"o@ c #999A97",
"o# c #999A98",
"o$ c Gray25",
"o% c #ABABA9",
"o& c #ABACA9",
"o* c Gray32",
"o= c #BDBDBB",
"o- c #BDBDBC",
"o; c Gray74",
"o: c #BDBEBB",
"o> c #BDBEBC",
"o, c #BDBEBD",
"o< c #CFCFCD",
"o1 c #CFCFCE",
"o2 c #CFD0CD",
"o3 c #CFD0CE",
"o4 c #767676",
"o5 c #E1E1DF",
"o6 c #E1E1E0",
"o7 c #E1E2DF",
"o8 c #E1E2E0",
"o9 c #E1E3E1",
"o0 c #888888",
"oq c #F3F3F2",
"ow c #F3F3F3",
"oe c #F3F4F3",
"or c #2F2F2F",
"ot c #9A9A98",
"oy c #9A9A9A",
"ou c #414140",
"oi c #414141",
"op c #ACACAB",
"oa c #ACACAC",
"os c #ACADAA",
"od c #ACADAB",
"of c #535353",
"og c #BEBEBD",
"oh c #656564",
"oj c #D0D0CE",
"ok c #D0D0D0",
"ol c #D0D1CE",
"oz c #D0D1CF",
"ox c #D0D1D0",
"oc c #777777",
"ov c #E2E2E1",
"ob c #E2E3E1",
"on c #E2E3E2",
"om c #898989",
"oM c #F4F4F3",
"oN c #F4F4F4",
"oB c #898A88",
"oV c #F4F5F4",
"oC c Gray19",
"oZ c #9B9B99",
"oA c #9B9B9A",
"oS c #303130",
"oD c #9B9C99",
"oF c #424241",
"oG c Gray26",
"oH c #ADADAC",
"oJ c #ADAEAD",
"oK c #BFBFBE",
"oL c Gray75",
"oP c #BFC0BD",
"oI c #BFC0BF",
"oU c #666665",
"oY c Gray40",
"oT c #D1D1D0",
"oR c #666766",
"oE c #D1D2CF",
"oW c #D1D2D0",
"oQ c #D1D2D1",
"o! c #D1D3D0",
"o~ c #E3E3E2",
"o^ c Gray89",
"o/ c #787977",
"o( c #E3E4E2",
"o) c #E3E4E3",
"o_ c Gray54",
"o` c None",
"o' c #F5F5F4",
"o] c WhiteSmoke",
"o[ c #8A8B8A",
"o{ c #200101",
"o} c #F5F6F5",
"o| c #200202",
"O  c #200303",
"O. c #200404",
"OX c #313131",
"Oo c #200505",
"OO c #200606",
"O+ c #200707",
"O@ c #200808",
"O# c #200909",
"O$ c #200A0A",
"O% c #434343",
"O& c #AEAEAC",
"O* c #AEAEAD",
"O= c #200B0B",
"O- c #AEAFAD",
"O; c #200C0C",
"O: c #200D0D",
"O> c #200E0E",
"O, c #200F0F",
"O< c #555554",
"O1 c #201010",
"O2 c Grey",
"O3 c #555655",
"O4 c #C0C1BE",
"O5 c #201313",
"O6 c #201414",
"O7 c #201515",
"O8 c #D2D2D0",
"O9 c #D2D2D2",
"O0 c #201717",
"Oq c #D2D3D0",
"Ow c #D2D3D1",
"Oe c #D2D3D2",
"Or c #201B1B",
"Ot c #797979",
"Oy c #E4E4E3",
"Ou c #E4E5E3",
"Oi c #E4E5E4",
"Op c #202020",
"Oa c #8B8B89",
"Os c #8B8B8B",
"Od c #F6F6F5",
"Of c #F6F6F6",
"Og c #F6F7F6",
"Oh c #323232",
"Oj c #210606",
"Ok c #9D9D9B",
"Ol c #9D9D9C",
"Oz c #9D9D9D",
"Ox c #210707",
"Oc c #9D9E9C",
"Ov c #210808",
"Ob c #210909",
"On c #444443",
"Om c #444444",
"OM c #AFAFAD",
"ON c #AFAFAE",
"OB c #AFAFAF",
"OV c #210C0C",
"OC c #AFB0AD",
"OZ c #210D0D",
"OA c #210E0E",
"OS c #211010",
"OD c #565655",
"OF c #565656",
"OG c #211111",
"OH c #C1C1BF",
"OJ c #C1C1C1",
"OK c #C1C2BF",
"OL c #C1C2C0",
"OP c #211313",
"OI c #211414",
"OU c #211515",
"OY c #211616",
"OT c #686868",
"OR c #211717",
"OE c #D3D3D1",
"OW c #D3D3D2",
"OQ c LightGrey",
"O! c #211818",
"O~ c #D3D4D1",
"O^ c #D3D4D2",
"O/ c #211919",
"O( c #211B1B",
"O) c #211C1C",
"O_ c #7A7A79",
"O` c #E5E5E4",
"O' c Gray90",
"O] c #211D1D",
"O[ c #E5E6E3",
"O{ c #E5E6E4",
"O} c #E5E6E5",
"O| c #211E1E",
"+  c #211F1F",
"+. c #212020",
"+X c Gray13",
"+o c Gray55",
"+O c #F7F7F6",
"++ c Gray97",
"+@ c Gray20",
"+# c #9E9E9C",
"+$ c Gray62",
"+% c #9E9F9C",
"+& c Gray27",
"+* c #B0B0AE",
"+= c #B0B0AF",
"+- c Gray69",
"+; c #B0B1B0",
"+: c Gray34",
"+> c #C2C2C1",
"+, c Gray76",
"+< c #C2C3C0",
"+1 c #696968",
"+2 c #D4D4D1",
"+3 c #D4D4D2",
"+4 c #D4D4D3",
"+5 c Gray83",
"+6 c #221919",
"+7 c #D4D5D2",
"+8 c #D4D5D3",
"+9 c #D4D5D4",
"+0 c #221A1A",
"+q c #7B7B7A",
"+w c #E6E6E5",
"+e c #E6E6E6",
"+r c #221E1E",
"+t c #E6E7E5",
"+y c #E6E7E6",
"+u c #221F1F",
"+i c #222121",
"+p c #222222",
"+a c #8D8D8C",
"+s c #8D8D8D",
"+d c #F8F8F7",
"+f c #F8F8F8",
"+g c #8D8E8D",
"+h c #F8F9F8",
"+j c #343434",
"+k c #9F9F9D",
"+l c #343534",
"+z c #464645",
"+x c #464646",
"+c c #B1B1AF",
"+v c #B1B1B1",
"+b c #B1B2AF",
"+n c #585858",
"+m c #C3C3C2",
"+M c #C3C4C1",
"+N c #6A6A69",
"+B c #D5D5D3",
"+V c #D5D5D4",
"+C c #D5D5D5",
"+Z c #6A6B69",
"+A c #D5D6D3",
"+S c #D5D6D4",
"+D c #D5D6D5",
"+F c #D5D7D4",
"+G c #7C7C7C",
"+H c #E7E7E6",
"+J c #E7E7E7",
"+K c #231F1F",
"+L c #E7E8E6",
"+P c #E7E8E7",
"+I c #232020",
"+U c #232222",
"+Y c #232323",
"+T c #8E8E8C",
"+R c #232423",
"+E c #F9F9F8",
"+W c #F9F9F9",
"+Q c #8E8F8D",
"+! c #F9FAF9",
"+~ c #353534",
"+^ c #353535",
"+/ c #A0A09E",
"+( c #A0A09F",
"+) c #A0A0A0",
"+_ c #A0A19E",
"+` c #A0A1A0",
"+' c Gray28",
"+] c #B2B2B1",
"+[ c #B2B2B2",
"+{ c #B2B3B0",
"+} c #B2B3B1",
"+| c Gray35",
"@  c #C4C4C2",
"@. c #C4C5C1",
"@X c #C4C5C2",
"@o c #C4C5C3",
"@O c #C4C6C4",
/* pixels */
"o`o`o`o`o`o`o`o`o`o`o`o`o`o`o`o`o`o`o`o`o`o`o`o`o`o`o`o`o`o`o`o`o`o`o`o`o`o`o`o`o`o`o`o`o`o`o`o`o`o`o`o`o`o`o`o`o`o`o`o`o`o`o`o`o`o`o`o`o`o`o`o`",
"o`o`o`o`o`o`o`o`o`o`o`o`o`o`o`o`o`o`o`o`o`o`o`o`o`o`o`o`o`o`o`o`o`o`o`o`o`o`o`o`o`o`o`o`o`o`o`o`o`o`o`o`o`o`o`o`o`o`o`o`o`o`o`o`o`o`o`o`o`o`o`o`",
"o`o`o`o`o`o`o`o`o`o`o`o`o`o`o`o`o`o`o`o`o`o`o`o`o`o`o`o`o`o`o`o`o`o`o`o`o`o`o`o`o`o`o`o`o`o`o`o`o`o`o`o`o`o`o`o`o`o`o`o`o`o`o`o`o`o`o`o`o`o`o`o`",
"o`o`o`o`o`o`o`o`o`o`o`o`o`o`o`o`o`o`o`o`o`o`o`o`o`o`o`o`o`o`o`o`o`o`o`o`o`o`o`o`o`o`o`o`o`o`o`o`o`o`o`o`o`o`o`o`o`o`o`o`o`o`o`o`o`o`o`o`o`o`o`o`",
"o`o`o`o`o`o`o`o`o`o`o`o`o`o`o`o`o`o`o`o`o`o`o`o`o`o`o`o`o`o`o`o`o`o`o`o`o`o`o`o`o`o`o`o`o`o`o`o`o`o`o`o`o`o`o`o`o`o`o`o`o`o`o`o`o`o`o`o`o`o`o`o`",
"o`o`o`o`o`o`o`o`o`o`o`o`o`o`o`o`o`o`o`o`o`o`o`o`o`o`o`o`o`o`o`o`o`o`o`o`o`o`o`o`o`o`o`o`o`o`o`o`o`o`o`o`o`o`o`o`o`o`o`o`o`o`o`o`o`o`o`o`o`o`o`o`",
"o`o`o`o`o`o`o`o`o`o`o`o`o`o`o`o`o`o`o`o`o`o`o`o`o`o`o`o`o`o`o`o`o`o`o`o`o`o`o`o`o`o`o`o`o`o`o`o`o`o`o`o`o`o`o`o`o`o`o`o`o`o`o`o`o`o`o`o`o`o`o`o`",
"o`o`o`o`o`o`o`o`o`o`o`o`o`o`o`o`o`o`o`o`o`o`o`o`o`o`o`o`o`o`o`o`o`o`o`o`o`o`o`o`o`o`o`o`o`o`o`o`o`o`o`o`o`o`o`o`o`o`o`o`o`o`o`o`o`o`o`o`o`o`o`o`",
"o`o`o`o`o`o`o`o`o`o`o`o`o`o`o`o`o`o`o`o`o`o`o`o`o`o`o`o`o`o`o`o`o`o`o`o`o`o`o`o`o`o`o`o`o`o`o`o`o`o`o`o`o`o`o`o`o`o`o`o`o`o`o`o`o`o`o`o`o`o`o`o`",
"o`o`o`o`o`o`o`o`o`o`o`o`o`o`o`o`o`o`o`o`o`o`o`o`o`o`o`o`o`o`o`o`o`o`o`o`o`o`o`o`o`o`o`o`o`o`o`o`o`o`o`o`o`o`o`o`o`o`o`o`o`o`o`o`o`o`o`o`o`o`o`o`",
"o`o`o`o`o`o`o`o`o`o`o`o`o`o`o`o`o`o`o`o`o`o`o`o`o`o`o`o`o`o`o`o`o`o`o`o`o`o`o`o`o`o`o`o`o`o`o`o`o`o`o`o`o`o`o`o`o`o`o`o`o`o`o`o`o`o`o`o`o`o`o`o`",
"o`o`o`o`o`o`o`o`o`o`o`o`o`o`o`o`o`o`o`o`o`o`o`o`o`o`o`o`o`o`o`o`o`o`o`o`o`o`o`o`o`o`o`o`o`o`o`o`o`o`o`o`o`o`o`o`o`o`o`o`o`o`o`o`o`o`o`o`o`o`o`o`",
"o`o`o`o`o`o`o`o`o`o`o`o`o`o`o`o`o`o`o`o`o`o`o`o`o`o`o`o`o`o`o`o`o`o`o{OoOvOxO o`o`o`o`o`o`o`o`o`o`o`o`o`o`o`o`o`o`o`o`o`o`o`o`o`o`o`o`o`o`o`o`o`",
"o`o`o`o`o`o`o`o`o`o`o`o`o`o`o`o`o`o`o`o`o`o`o`o`o`o`o`o`o`o`o`o|O>O/+.+X+X+X+XO|O7Obo`o`o`o`o`o`o`o`o`o`o`o`o`o`o`o`o`o`o`o`o`o`o`o`o`o`o`o`o`o`",
"o`o`o`o`o`o`o`o`o`o`o`o`o`o`o`o`o`o`o`o`o`o`o`o`o`o`o`o`o`o`OZO|+X+xo4.N+$XRXf.&Xk+XO/OOo`o`o`o`o`o`o`o`o`o`o`o`o`o`o`o`o`o`o`o`o`o`o`o`o`o`o`o`",
"o`o`o`o`o`o`o`o`o`o`o`o`o`o`o`o`o`o`o`o`o`o`o`o`o`o`o`o`o{OY+X+n.a+COQ+5+VoTX+ lo; NXk+.O;o`o`o`o`o`o`o`o`o`o`o`o`o`o`o`o`o`o`o`o`o`o`o`o`o`o`o`",
"o`o`o`o`o`o`o`o`o`o`o`o`o`o`o`o`o`o`o`o`o`o`o`o`o`o`o`o{O! }.[.<.< Bo]o]XK.7 @X-o1O2+-Om+XO:o`o`o`o`o`o`o`o`o`o`o`o`o`o`o`o`o`o`o`o`o`o`o`o`o`o`",
"o`o`o`o`o`o`o`o`o`o`o`o`o`o`o`o`o`o`OOOSOUO0O0OIO;o|o`O5 tX5.<+H.  =OdXI.b wOuX}.E+3+> U+xOpO@o`o`o`o`o`o`o`o`o`o`o`o`o`o`o`o`o`o`o`o`o`o`o`o`o`",
"o`o`o`o`o`o`o`o`o`o`o`o`o`o`o`o`OVO)+X+Y..X. ,oC+X+ OR+XOs.W [.B iOfX|.) rO`o6.! m+3o2o;oaoCO]o{o{OoO+O.o{o`o`o`o`o`o`o`o`o`o`o`o`o`o`o`o`o`o`o`",
"o`o`o`o`o`o`o`o`o`o`o`o`o`o`O O/+X ,.Ao^o X>._ V+,Xu.9+'.WO`.B p+Oo ._ BO{o8X& m+8olX# z.a.v+XOr+.+X+X+X+.OROVo`o`o`o`o`o`o`o`o`o`o`o`o`o`o`o`o`",
"o`o`o`o`o`o`o`o`o`o`o`o`o`O.O].9.O++o'.n.).b CO}onO'.=.#XA p F++owX: C+wovX= )+BozXe.-@Xo>+[XzofX$ N NXu+:OX+XO)Obo`o`o`o`o`o`o`o`o`o`o`o`o`o`o`",
"o`o`o`o`o`o`o`o`o`o`o`o`o|OrXkXN p._ p G++oq.` BO{XAX*XSO` G+foeX: ]+yobXp.>+SoEXM.-@X@X+M 1OB+vXXX7+; L+)OzXuOh+XOSo`o`o`o`o`o`o`o`o`o`o`o`o`o`",
"o`o`o`o`o`o`o`o`o`o`o`o`OP+poL pXI.B. +foMX: Z+wo8X% m 9.n+foNX, {+Ho~Xd.2 XoWXB.g@X@X@X 3ok+wX:.4 @O`XdXOXQoy D+x+XO,o`o`o`o`o`o`o`o`o`o`o`o`o`",
"o`o`o`o`o`o`o`o`o`o`o`Oo+.X$.wXh.B.w+WoVXg ]+yobX= ^+8ojo(oVXh.4+e+y @ w+tX} ^XV 3@X@XX@.7o X: { @Ouo6X=.2 5o-XR.qOm+XO#o`o`o`o`o`o`o`o`o`o`o`o`",
"o`o`o`o`o`o`o`o`o`o`o`OG+XX{o].w.w =o]XK.4+P 6X9+=X(o3XeXwX> BoM p+fo]o X:.4 w+w.!XeXeX|o X: ] @Ouo6X=.2 5O^ojo>.qOsXYO)o{o`o`o`o`o`o`o`o`o`o`o`",
"o`o`o`o`o`o`o`o`o`o`o`O(.i.BXh.B iOfXI BoA g+Y+X+X+XoooU+bX:.B G+WOdoqXg.b B+HOyo6XpXpXLX: ] @Ouo6X=.> +O~o3Xe.;od yoY+XO=o`o`o`o`o`o`o`o`o`o`o`",
"o`o`o`o`o`o`o`o`o`o`o`+.Ot.wOf p+Oo OW ,+X.dXv 2 Q j 'X< }+$ G+!OgoeXj.m Z+POuo8Xd.x m m q+POyX}X=.> +OEo2Xe.- 3+M.[om }OYo`o`o`o`o`o`o`o`o`o`o`",
"o`o`o`o`o`o`o`o`o`o`o|+X+s. +h+dowOe+@ H.=._ { q+PO}O` 6  +X+o++oNXK.) ] @O`ovXG.! ) +O^+BOyX}X& ) +OEo2Xe.- 3@X@XXcOsoiO|o`o`o`o`o`o`o`o`o`o`o`",
"o`o`o`o`o`o`o`o`o`o`o{+X.( GowoM.4+xOhX&._.4 p.B.B i.bo7XdXD+p hX|X:.4 w+wo~X]X%.> 5+3ozXV+FX& ) OOwo2X#.-@X@X@X@X.so_X.+Xo{o`o`o`o`o`o`o`o`o`o`",
"o`o`o`o`o`o`o`o`o`o{O#+  HXqoc+(+g+Xo,X,oM.B.B G+fow.` eX= moGX3OJXJoR+|+1 a W.2 9+8oWX_X@.I n XOwo<X@.-@X@X@X@X@XoPomX^+Xo|o`o`o`o`o`o`o`o`o`o`",
"o`o`o`o`o`o`o`o`OV+K+X.'OFoUO%+X+X.+X:.n.B.w+!o'Xg {+Hob.~.2+`+X+X.9+&.F d+X+RoR zOqo2Xe.g 3.$X!O&O4.-@X@X@X@X@X@X@X j T+XO/O o`o`o`o`o`o`o`o`o`",
"o`o`o`o`o`o`o`OI+X.H+V++ =+fOfXAo0X4X: | pOfX|.b $o)XA.2 X+8oz P.0.YozX_XM Y / u+jO-Xr+]ohXY+X+X+X+YOnXH+<@X@X@X@X@X@X+MX;+YO)O o`o`o`o`o`o`o`o`",
"o`o`o`o`o`o`OP+X.}. +f.).b C+L ]XLX, Vo .`Xgo X: wo6 )OwX)XV 5+B+SXG+wOiX=oz W.yOhOXXF Aoro[X0.fOL+)O3+XoGOC@X@X@X@X@X@X@X S+XO/o{o`o`o`o`o`o`o`",
"o`o`o`o`o`O@+XOl.Bo ++o]Xg ]+wo6Xs Z+f.B.B.B G+Eo]X|.7.z.*.U+S.~o XL._ ] @O` c 3.S }+X+q+y.n Z @+tO`Oy hOhoSOC@X@X@X@X@X@X@XXF+XOSo`o`o`o`o`o`o`",
"o`o`o`o`o`+0XE poe+Eo'X, ZO{X}.!X:.B.B.B.B p++oNXj.b r+wXGoE.ko X,.4 w+wo~X].!Ow@XXy+X+, ]ow.B.B. o}O`X} Rooo$+<@X@X@X@X@X@XO4+l+ o|o`o`o`o`o`o`",
"o`o`o`o`O +pO*.wXIoVX, CO{X}.!o].B.B.B.  *OfoqX,.4 @O`o8Xp.1O[.m C+HOyo6X=.2 9+8 E I+Y+G.w.B.B =OdXK.7obX=.Z+XO_XPoUX~O3+NX1O4oB+XO;o`o`o`o`o`o`",
"o`o`o`o`Ob+XX-+foNX: BO`X[.kXg.B.B.B G+Eo]X|.) Z+Ho)X}.! ^+S+8+eO{ovXA.R m+SOwo2.g@X.C k.B G++oq.) wOuX[ ) )O%+X+X+~X On.M+X -./+XO6o`o`o`o`o`o`",
"o`o`o`o`O=+X+JowX: rOuXG.2XG.B.B.w p++oNXh.b r+wobXA.x c+8oEXB+2X}X&.> 5O^ozXB.U z@Xo$O%+WoNX, ]+wo8X& mOW v+a+1+}oWo3XV EXTO%+X.MO/o`o`o`o`o`o`",
"o`o`o`o`O@+XO9Of rOuXG.2+Ao'.B.  *OfoqX:.4 @O`o6X=.2 c _X-X= (Oq n c+BoWX_X@.- 3@X@X t ;X:XIX|.7O}Xi+AozX#+7 O+3 `o(+wo9 0.Y 3+Z+XO]o`o`o`o`o`o`",
"o`o`o`o`O.+X.]+Wo(XA.>+B ..B G+fo'XI.) Z+Ho(X[.! ^ M+H @OuX}X=.> OO8ojXr.h z@X@X@XoO+X.&.B.w =++oeXg+woW@XO~ X woqXg.7 r+to6Xt@X.P+XO@o`o`o`o`o`",
"o`o`o`OO+I AON+f.5 ^+8o2.! i++oMXh.b r+wobXA.x c 9 w+LOyX}X% ) XOwX_.Y E@X@X@X@X@XO< A+pXJ+WOdo X: ] @Ou ++D wXK.) ]+POuo8Xp.2.;XnXU+0o`o`o`o`o`",
"o`o`O +u.Vo)+d.)XK.6o)oWXdOfoqX:.4 @Ouo6X=.2 +O~Oy+Ho(X[.! ~+SO8X).Y E@X@X@X@X@ oB+z+b.J+XX2XK.m B+yo~X].E ~X:.4 w+wobXG.! ^ Oo3@X+1+pO o`o`o`o`",
"o`o`O6.8+HOdo'.B+fXj wovo~XI.) C+Ho(X[.! ~+SO8+4+to~XG.E m+BoWX).U E@X@X@X@X@X.e.3OK@X+<X~ t+D wO{ovXd.k 9+3.Q+HOyX}X=.2 9+3oEXV 3 S+XObo`o`o`o`",
"o`O +X f *o .B+EXL rob.kX].m w+wobXA.x 9+8ozXB+SobXA.x m+8oEXV.K z@X@X@X@X@XO4o:@X@X@X@Xo&+Y+qOuX}X=.> +OEo2X#X&XA.x m+SOqo<Xe.;@Xo@+XO;o`o`o`o`",
"o`O$+X+eoq.B+WX| Co~.x+3oW @Ouo6X=.> +O~o3Xe.-O~Xd.x 9+3ozXB.h z@X@X@X@X@X@X@X@X@X@X@X@X@XOn.+XG.E m 8.xXd.c OoE.> +O^olXB.K E@X@X b+XOZo`o`o`o`",
"o`O,+XXKX:+!o  ]o~.R+8XB 3.!X].! ~+SO8X).Y E@XXV.2 9+3olXr.g 3@X@X@X@X@X@X@X@X@X@X@X@X@X@X To+.k +Xd w+wobXA.x mO^oxX)X@.-@X@X@X@X.r+XO.o`o`o`o`",
"o`O>+X @.)oq ]Oy.!+BXV z@XX@.x 9+8ozXB.h z@X@X z OO^o3Xe.; 3@X@X@X@X@X@X@X@X@X@X@X@X@X@X@XOD+^ OX} w+wobXd.x 9+8ozXB.h z@X@X@X@XOC &+Y+IOOo`o`o`",
"o`Ob+X+moq BOuX%+SX) z@X@X@Xo2OEo2Xe.- 3@X@X@X@XX@o2X#.-@X@X@X@X@X@X@X@X@X@X@X@X@X@X@X@X+<+@o* 9 wO{ovXp.2 9+3olXr.g 3@X@X@X@Xo=+z.^+_oX+KO o`o`",
"o`o{+I.%oq+LX= XX_ E@X@X@.@X@XX@.Y E@X@X@X@X@X@X@X.- W@X@X@X@X@X@X@X@X@X@X@X@X@X@X@X@X@X+Q+XOaXAO`o8Xp.2 5O^ojXe.; 3@X@X@X@XXoXa.|@X@X > %O6o`o`",
"o`o`OA+XX6XhOuo! E@X@X@X@X@X@X@X 3@X@X@X@X@X@X@X@X@X@X@X@X@X@X@X@X@X@X@X@X@X@X@X@X@X@X+{OX.r Eovo6X=.> +OEo2X#.-@X@X@X@X@X@XX8@X@X@X@X@X.P+iO o`",
"o`o`o`OY+iXl w ]o).z.k.c.< ^ 7 o+9oEXZXVXr.T.Y.g ! E 4@o@X@X@X@X@X@X@X@X@X@X@X@X@X@X+%+j.MXv EXGX& ) XOwo<X@ W@X@X@X@X@X@X@X@X@X@X@X@X@Xo#+XO$o`",
"o`o`o`o{OI+X.. aXX+m+>oKo=Xb.G.@ <+cOMopXW.}.t J+/+#oZoOoOoOoOoOoOoOoOoOoOoOoO.{ '.D+X+j.u 3@X m ^+SO8X_X@ E@X@X@X@X@X@X@X@X@X@X@X@X@X@X+{+XO,o`",
"o`o`o`o`o`O@+6+i+X+X+X+X+X+X+X+X+X+X+X+X+X+X+X+X+X+X+X+X+X+X+X+X+X+X+X+X+X+X+X+X+X..o/O4@X@X@XX_+AoWX).U E@X@X@X@X@X@X@X@X@X@X@X@X@X@X@Xos+XOAo`",
"o`o`o`o`o`o`o`o{OjO@O#O#O#O#O#O#O#O#O#O#O#O#O#O#O#O( so- h <oJX6 KOcoOoOoOoD.oX!Xm.U z@X@X@X@X 3ojXV.U z@X@X@X@X@X@X@X@X@X@X@X@X@X@X@X@Xo.+XO@o`",
"o`o`o`o`o`o`o`o`o`o`o`o`o`o`o`o`o`o`o`o`o`o`o`o`o`O:+X.LXKo5.>OwX@@X@X@X@X@X EXe.g 3@X@X@X@X@X@X z.g z@X@X@X@X@X@X@X@X@X@X@X@X@X@X@X@X+<ou+Io{o`",
"o`o`o`o`o`o`o`o`o`o`o`o`o`o`o`o`o`o`o`o`o`o`o`o`o`o{+rX3O}.m.kXe@X@X@X@X@X@X@X@X@X@X@X@X@X@X@X@X@X@.@X@X@X@X@X@X@X@X@X@X@X@X@X@X@X@X@XX'+XO:o`o`",
"o`o`o`o`o`o`o`o`o`o`o`o`o`o`o`o`o`o`o`o`o`o`o`o`o`o`Ox+UoFoQ.4 #XG M.!.l., v 6+S+4X`XCXBX#.Y.j.: W x@O@X@X@X@X@X@X@X@X@X@X@X@X@X@Xo:+N+iOYo`o`o`",
"o`o`o`o`o`o`o`o`o`o`o`o`o`o`o`o`o`o`o`o`o`o`o`o`o`o`o`O++I+iOTXcoI+mOHogX/XX.p I+]+*oHo%Xx.Z.X :+kOkotoOoOoOoOoOoOoOoOoOoOoOoO+T+Zor+XOIo{o`o`o`",
"o`o`o`o`o`o`o`o`o`o`o`o`o`o`o`o`o`o`o`o`o`o`o`o`o`o`o`o`o|O1+r+X+X+X+X+X+X+X+X+X+X+X+X+X+X+X+X+X+X+X+X+X+X+X+X+X+X+X+X+X+X+X+X+X+iO!O@o`o`o`o`o`",
"o`o`o`o`o`o`o`o`o`o`o`o`o`o`o`o`o`o`o`o`o`o`o`o`o`o`o`o`o`o`o`O O+O#O#O#O#O#O#O#O#O#O#O#O#O#O#O#O#O#O#O#O#O#O#O#O#O#O#O#O#O#O@Ooo{o`o`o`o`o`o`o`",
"o`o`o`o`o`o`o`o`o`o`o`o`o`o`o`o`o`o`o`o`o`o`o`o`o`o`o`o`o`o`o`o`o`o`o`o`o`o`o`o`o`o`o`o`o`o`o`o`o`o`o`o`o`o`o`o`o`o`o`o`o`o`o`o`o`o`o`o`o`o`o`o`",
"o`o`o`o`o`o`o`o`o`o`o`o`o`o`o`o`o`o`o`o`o`o`o`o`o`o`o`o`o`o`o`o`o`o`o`o`o`o`o`o`o`o`o`o`o`o`o`o`o`o`o`o`o`o`o`o`o`o`o`o`o`o`o`o`o`o`o`o`o`o`o`o`",
"o`o`o`o`o`o`o`o`o`o`o`o`o`o`o`o`o`o`o`o`o`o`o`o`o`o`o`o`o`o`o`o`o`o`o`o`o`o`o`o`o`o`o`o`o`o`o`o`o`o`o`o`o`o`o`o`o`o`o`o`o`o`o`o`o`o`o`o`o`o`o`o`",
"o`o`o`o`o`o`o`o`o`o`o`o`o`o`o`o`o`o`o`o`o`o`o`o`o`o`o`o`o`o`o`o`o`o`o`o`o`o`o`o`o`o`o`o`o`o`o`o`o`o`o`o`o`o`o`o`o`o`o`o`o`o`o`o`o`o`o`o`o`o`o`o`",
"o`o`o`o`o`o`o`o`o`o`o`o`o`o`o`o`o`o`o`o`o`o`o`o`o`o`o`o`o`o`o`o`o`o`o`o`o`o`o`o`o`o`o`o`o`o`o`o`o`o`o`o`o`o`o`o`o`o`o`o`o`o`o`o`o`o`o`o`o`o`o`o`",
"o`o`o`o`o`o`o`o`o`o`o`o`o`o`o`o`o`o`o`o`o`o`o`o`o`o`o`o`o`o`o`o`o`o`o`o`o`o`o`o`o`o`o`o`o`o`o`o`o`o`o`o`o`o`o`o`o`o`o`o`o`o`o`o`o`o`o`o`o`o`o`o`",
"o`o`o`o`o`o`o`o`o`o`o`o`o`o`o`o`o`o`o`o`o`o`o`o`o`o`o`o`o`o`o`o`o`o`o`o`o`o`o`o`o`o`o`o`o`o`o`o`o`o`o`o`o`o`o`o`o`o`o`o`o`o`o`o`o`o`o`o`o`o`o`o`",
"o`o`o`o`o`o`o`o`o`o`o`o`o`o`o`o`o`o`o`o`o`o`o`o`o`o`o`o`o`o`o`o`o`o`o`o`o`o`o`o`o`o`o`o`o`o`o`o`o`o`o`o`o`o`o`o`o`o`o`o`o`o`o`o`o`o`o`o`o`o`o`o`",
"o`o`o`o`o`o`o`o`o`o`o`o`o`o`o`o`o`o`o`o`o`o`o`o`o`o`o`o`o`o`o`o`o`o`o`o`o`o`o`o`o`o`o`o`o`o`o`o`o`o`o`o`o`o`o`o`o`o`o`o`o`o`o`o`o`o`o`o`o`o`o`o`",
"o`o`o`o`o`o`o`o`o`o`o`o`o`o`o`o`o`o`o`o`o`o`o`o`o`o`o`o`o`o`o`o`o`o`o`o`o`o`o`o`o`o`o`o`o`o`o`o`o`o`o`o`o`o`o`o`o`o`o`o`o`o`o`o`o`o`o`o`o`o`o`o`",
"o`o`o`o`o`o`o`o`o`o`o`o`o`o`o`o`o`o`o`o`o`o`o`o`o`o`o`o`o`o`o`o`o`o`o`o`o`o`o`o`o`o`o`o`o`o`o`o`o`o`o`o`o`o`o`o`o`o`o`o`o`o`o`o`o`o`o`o`o`o`o`o`",
"o`o`o`o`o`o`o`o`o`o`o`o`o`o`o`o`o`o`o`o`o`o`o`o`o`o`o`o`o`o`o`o`o`o`o`o`o`o`o`o`o`o`o`o`o`o`o`o`o`o`o`o`o`o`o`o`o`o`o`o`o`o`o`o`o`o`o`o`o`o`o`o`"
};
