/* XPM */
static char *important[] = {
/* columns rows colors chars-per-pixel */
"24 24 208 2 ",
"   c #820000",
".  c #880000",
"X  c #8A0000",
"o  c #900000",
"O  c #9A0000",
"+  c #9B0000",
"@  c #9C0000",
"#  c #9E0000",
"$  c #A20000",
"%  c #A30101",
"&  c #A40000",
"*  c #A50000",
"=  c #A60000",
"-  c #A70000",
";  c #A70101",
":  c #A40303",
">  c #A50303",
",  c #A70202",
"<  c #A70303",
"1  c #A60606",
"2  c #A80000",
"3  c #A90000",
"4  c #AB0000",
"5  c #A80303",
"6  c #AF0202",
"7  c #A90E0E",
"8  c #B30000",
"9  c #B50303",
"0  c #B10505",
"q  c #B90000",
"w  c #BC0101",
"e  c #B00F0F",
"r  c #B20E0E",
"t  c #B50E0E",
"y  c #BF0808",
"u  c #BF0A0A",
"i  c #BE0F0F",
"p  c #AC1111",
"a  c #AF1313",
"s  c #B31010",
"d  c #B21313",
"f  c #B41C1C",
"g  c #B91A1A",
"h  c #BC2525",
"j  c #BE2B2B",
"k  c #A63434",
"l  c #A63535",
"z  c #A83A3A",
"x  c #C20101",
"c  c #C60202",
"v  c #C00707",
"b  c #C50404",
"n  c #C40606",
"m  c #C60606",
"M  c #C90202",
"N  c #CA0505",
"B  c #CD0404",
"V  c #C20A0A",
"C  c #C60808",
"Z  c #C20D0D",
"A  c #C10E0E",
"S  c #C30E0E",
"D  c #C70F0F",
"F  c #C90E0E",
"G  c #CF0E0E",
"H  c #D00404",
"J  c #D50404",
"K  c #D80505",
"L  c #DA0707",
"P  c #D30909",
"I  c #DA0B0B",
"U  c #C21212",
"Y  c #C21414",
"T  c #C81212",
"R  c #C31919",
"E  c #C71B1B",
"W  c #CA1C1C",
"Q  c #D01212",
"!  c #D41616",
"~  c #DE1010",
"^  c #D81B1B",
"/  c #E00909",
"(  c #E50909",
")  c #E90F0F",
"_  c #E41E1E",
"`  c #ED1A1A",
"'  c #F31010",
"]  c #F01414",
"[  c #F11616",
"{  c #C52222",
"}  c #C02727",
"|  c #C42B2B",
" . c #C22C2C",
".. c #CA2D2D",
"X. c #D12424",
"o. c #D82424",
"O. c #DA2626",
"+. c #DF2727",
"@. c #D42929",
"#. c #DE2B2B",
"$. c #C43232",
"%. c #CA3333",
"&. c #CE3333",
"*. c #CF3535",
"=. c #CC3A3A",
"-. c #CD3B3B",
";. c #CB3C3C",
":. c #CC3F3F",
">. c #CF3F3F",
",. c #D23636",
"<. c #DD3636",
"1. c #EF2424",
"2. c #E82828",
"3. c #E82D2D",
"4. c #EA2E2E",
"5. c #F22525",
"6. c #F22626",
"7. c #E33636",
"8. c #EB3333",
"9. c #EE3232",
"0. c #ED3C3C",
"q. c #AE4747",
"w. c #AF4D4D",
"e. c #B55757",
"r. c #B96161",
"t. c #BA6F6F",
"y. c #CC4444",
"u. c #CE4747",
"i. c #D65151",
"p. c #D75252",
"a. c #D95252",
"s. c #E44343",
"d. c #E14848",
"f. c #E35151",
"g. c #CE6363",
"h. c #CF6363",
"j. c #C07474",
"k. c #C27676",
"l. c #C37A7A",
"z. c #D67575",
"x. c #D77575",
"c. c #E66B6B",
"v. c #E86B6B",
"b. c #EA7878",
"n. c #EC7878",
"m. c #C78F8F",
"M. c #CB9292",
"N. c #CE9393",
"B. c #CD9494",
"V. c #D59494",
"C. c #E28D8D",
"Z. c #E38E8E",
"A. c #D0A8A8",
"S. c #D5ABAB",
"D. c #D4ADAD",
"F. c #DDA9A9",
"G. c #DFADAD",
"H. c #DCBFBF",
"J. c #E4B9B9",
"K. c #E4BCBC",
"L. c #F2B0B0",
"P. c #DBC1C1",
"I. c #DCC1C1",
"U. c #DEC6C6",
"Y. c #DEDADA",
"T. c #DEDDDD",
"R. c #DFDDDD",
"E. c #DFDFDF",
"W. c #E4C9C9",
"Q. c #E3D7D7",
"!. c #E3DADA",
"~. c #EFDFDF",
"^. c gray88",
"/. c #E2E2E2",
"(. c gray89",
"). c #E6E0E0",
"_. c #E5E2E2",
"`. c #E4E4E4",
"'. c gray90",
"]. c #E6E6E6",
"[. c #E7E7E7",
"{. c #E8E5E5",
"}. c #ECE5E5",
"|. c gray91",
" X c #E9E8E8",
".X c #E9E9E9",
"XX c #EAEAEA",
"oX c gray92",
"OX c #ECECEC",
"+X c #EEEEEE",
"@X c #EFEFEF",
"#X c #F4E3E3",
"$X c #F1ECEC",
"%X c #F2EDED",
"&X c #F4EFEF",
"*X c gray94",
"=X c #F1F1F1",
"-X c gray95",
";X c #F3F3F3",
":X c #F4F4F4",
">X c gray96",
",X c #F6F6F6",
"<X c #F7F6F6",
"1X c gray97",
"2X c #F8F6F6",
"3X c #F8F8F8",
"4X c gray98",
"5X c None",
/* pixels */
"5X5X5X5X5X5X5X5X5X5X5X5X5X5X5X5X5X5X5X5X5X5X5X5X",
"5X5X5X5X5X5X5X5X5X5X5X5X5X5X5X5X5X5X5X5X5X5X5X5X",
"5X5X5X5X5X5X5X5X5X= 2 = = 2 = 5X5X5X5X5X5X5X5X5X",
"5X5X5X5X5X5X5X2 r W O.4.2.^ D 0 = 5X5X5X5X5X5X5X",
"5X5X5X5X5X5X5 @.0.5.] 5.5.' ] ` T = 5X5X5X5X5X5X",
"5X5X5X5X5Xs s.4.8.L.#X>X>X#XL.9.) ) 6 5X5X5X5X5X",
"5X5X5X5X= d._ b.%X:X3XN.k.&X>X%Xn.( I = 5X5X5X5X",
"5X5X5X= *.7.c.@X:X>X2Xk k W.>X;XOXv./ m 2 5X5X5X",
"5X5X5Xd f.#.}.OX:X>X3Xq.k ).2X:X;X{.2.K 2 5X5X5X",
"5X5X5X| <.Z.OX;X;X:X3Xr.z 3X>X:X@XOXC.J q 5X5X5X",
"5X5X= y.O.J.XXOX@X:X>Xl.e.>X:X;XOXOXK.J x = 5X5X",
"5X5X= a.! !.XXOX@X;X:XB.t.;X;X%XOXXX_.P M = 5X5X",
"5X5X2 a.T Q.XXXXOXOX%XS.N.;XOXOXXX].!.H c = 5X5X",
"5X5X= :.X.F.].{.OXOXOXP.D.OXXXXX].].G.B w 2 5X5X",
"5X5X5Xj ,.z.`.`.[.[.{.XX].XXXX].].`.x.N 8 5X5X5X",
"5X5X5Xs i.T U./.`.].].A.m.].].`./.U.F m 2 5X5X5X",
"5X5X5X= $.*.:.R./././.t.w././.^.R.:.V 9 = 5X5X5X",
"5X5X5X5X: u.E %.I.R.R.R.Y.R.R.H.%.n y = 5X5X5X5X",
"5X5X5X5XX p y...Z g.V.P.P.V.g.V Z i 2 X 5X5X5X5X",
"5X5X5X5X5X. = j ;.{ Y y y Z Y R t $   5X5X5X5X5X",
"5X5X5X5X5X5X5X$ 7 f h  .j g s : @ 5X5X5X5X5X5X5X",
"5X5X5X5X5X5X5X5X5XX @ $ $ O . 5X5X5X5X5X5X5X5X5X",
"5X5X5X5X5X5X5X5X5X5X5X5X5X5X5X5X5X5X5X5X5X5X5X5X",
"5X5X5X5X5X5X5X5X5X5X5X5X5X5X5X5X5X5X5X5X5X5X5X5X"
};
