#define down_width 16
#define down_height 16
static unsigned char down_bits[] = {
   0xff, 0xff, 0x7f, 0xfe, 0x3f, 0xfe, 0x3f, 0xff, 0x3f, 0xff, 0x3f, 0xfe,
   0x7f, 0xfe, 0x7f, 0xfe, 0x7f, 0xfe, 0x7f, 0xfe, 0x77, 0xfe, 0x33, 0xf2,
   0x07, 0xf8, 0x0f, 0xfe, 0x1f, 0xff, 0xbf, 0xff};
