#define tick_width 16
#define tick_height 18
static char tick_bits[] = {
   0x00, 0xe0, 0x00, 0xe0, 0x00, 0x70, 0x00, 0x70, 0x00, 0x38, 0x00, 0x38,
   0x00, 0x1c, 0x07, 0x1c, 0x0e, 0x0e, 0x0e, 0x0e, 0x1c, 0x07, 0x1c, 0x07,
   0xb8, 0x03, 0xb8, 0x03, 0xf0, 0x01, 0xf0, 0x01, 0xe0, 0x00, 0xe0, 0x00};
