#define up_width 16
#define up_height 16
static unsigned char up_bits[] = {
   0xff, 0xff, 0x3f, 0xff, 0x1f, 0xf8, 0x0f, 0xe0, 0x07, 0xe6, 0x67, 0xfe,
   0x67, 0xfc, 0xff, 0xfc, 0x7f, 0xfc, 0x7f, 0xfe, 0x3f, 0xff, 0x3f, 0xff,
   0x3f, 0xff, 0x7f, 0xfe, 0x7f, 0xfe, 0xff, 0xfe};
